<svg width="32" height="32" viewBox="0 0 32 32" fill="none" xmlns="http://www.w3.org/2000/svg">
<path d="M15.9764 0C7.16347 0 0 7.14706 0 16C0 24.8529 7.15758 32 15.9764 32C24.8424 32 32 24.8529 32 16C32 7.14706 24.8424 0 15.9764 0ZM15.9764 30.7353C7.84094 30.7353 1.26657 24.1706 1.26657 16C1.26657 7.87647 7.84094 1.26471 15.9764 1.26471C24.1591 1.26471 30.7334 7.88235 30.7334 16C30.7334 24.1706 24.1591 30.7353 15.9764 30.7353ZM8.47717 12.0647C8.47717 10.7 9.59647 9.63529 10.9102 9.63529C12.324 9.63529 13.3962 10.7059 13.3962 12.0647C13.3962 13.4294 12.324 14.4941 10.9102 14.4941C9.59647 14.4941 8.47717 13.4235 8.47717 12.0647ZM19.0928 12.0647C19.0928 10.7 20.1649 9.63529 21.5788 9.63529C22.9396 9.63529 24.0118 10.7059 24.0118 12.0647C24.0118 13.4294 22.9396 14.4941 21.5788 14.4941C20.1649 14.4941 19.0928 13.4235 19.0928 12.0647ZM24.8424 18.4824C23.7703 22.1294 20.3594 24.8059 16.3652 24.8059C12.324 24.8059 8.96024 22.1294 7.88807 18.4353C9.73785 21.1118 12.8542 22.9118 16.3652 22.9118C19.8763 22.9059 22.9926 21.1588 24.8424 18.4824Z" fill="#18A900"/>
</svg>
