<svg width="31" height="31" viewBox="0 0 31 31" fill="none" xmlns="http://www.w3.org/2000/svg">
<path d="M15.4772 0C6.93391 0 0 6.92371 0 15.5C0 24.0763 6.93391 31 15.4772 31C24.1117 31 31 24.0763 31 15.5C31 6.92371 24.1117 0 15.4772 0ZM15.4772 29.7748C7.59591 29.7748 1.22699 23.4153 1.22699 15.5C1.22699 7.68162 7.59591 1.22518 15.4772 1.22518C23.4041 1.22518 29.8187 7.68162 29.8187 15.5C29.8187 23.4153 23.4041 29.7748 15.4772 29.7748ZM8.21226 11.6877C8.21226 10.3656 9.29658 9.33419 10.5692 9.33419C11.9389 9.33419 12.9775 10.3713 12.9775 11.6877C12.9775 13.0097 11.9389 14.0412 10.5692 14.0412C9.29658 14.0412 8.21226 13.004 8.21226 11.6877ZM18.4961 11.6877C18.4961 10.3656 19.5348 9.33419 20.9045 9.33419C22.2228 9.33419 23.2614 10.3713 23.2614 11.6877C23.2614 13.0097 22.2228 14.0412 20.9045 14.0412C19.5348 14.0412 18.4961 13.004 18.4961 11.6877ZM23.8778 24.3612C22.0401 21.7684 19.0155 20.0759 15.6655 20.0759C12.2185 20.0759 9.25092 21.7741 7.40758 24.4068C8.4919 20.8224 11.7506 18.2353 15.6655 18.2353C19.5348 18.1897 22.7934 20.7768 23.8778 24.3612Z" fill="#C05C00"/>
</svg>
