<svg width="31" height="25" viewBox="0 0 31 25" fill="none" xmlns="http://www.w3.org/2000/svg">
<path d="M22.5911 7.96389C23.5419 7.03502 24.4857 4.86764 20.5243 7.49946C14.8956 11.294 9.34789 14.8564 9.34789 14.8564C8.77682 15.1087 8.15944 15.2456 7.53285 15.2589C6.90626 15.2722 6.28339 15.1616 5.70164 14.9338C3.32478 14.2372 0.550052 13.3083 0.550052 13.3083C0.550052 13.3083 -1.34455 12.1455 1.89866 10.907C1.89866 10.907 15.6104 5.40949 20.3658 3.47265C22.1881 2.69859 28.3697 0.221587 28.3697 0.221587C28.3697 0.221587 31.2236 -0.863783 30.9859 1.76971C30.9067 2.8534 30.2729 6.64967 29.639 10.7522C28.6866 16.5594 27.6566 22.91 27.6566 22.91C27.6566 22.91 27.4981 24.6904 26.1513 25C24.7094 24.9762 23.3164 24.4862 22.1898 23.6067C21.8729 23.3745 16.246 19.8895 14.1843 18.1866C13.9746 18.0478 13.8042 17.8594 13.689 17.639C13.5738 17.4186 13.5175 17.1733 13.5254 16.9259C13.5334 16.6786 13.6052 16.4372 13.7342 16.2242C13.8633 16.0112 14.0453 15.8336 14.2635 15.7079C17.1226 13.1535 20.5312 9.97814 22.5911 7.96389Z" fill="#DEDEDE"/>
</svg>
