<svg width="34" height="27" viewBox="0 0 34 27" fill="none" xmlns="http://www.w3.org/2000/svg">
<path d="M34 3.23478C32.7222 3.77556 31.3708 4.13305 29.988 4.29613C31.4469 3.44592 32.5402 2.1084 33.065 0.531668C31.694 1.32778 30.1933 1.88869 28.628 2.19002C27.5817 1.08319 26.1884 0.346424 24.6667 0.0952752C23.1449 -0.155874 21.5807 0.0927992 20.2194 0.802294C18.8582 1.51179 17.7768 2.64197 17.1449 4.01559C16.513 5.38922 16.3664 6.92858 16.728 8.39225C13.956 8.25549 11.2446 7.55139 8.76971 6.32572C6.29488 5.10005 4.11204 3.38021 2.363 1.27793C1.74953 2.32297 1.42718 3.50646 1.428 4.71071C1.42582 5.82908 1.70717 6.93061 2.24698 7.91724C2.7868 8.90388 3.56833 9.74499 4.522 10.3657C3.41356 10.3363 2.32881 10.0461 1.36 9.51993V9.60285C1.36831 11.1698 1.93119 12.6859 2.95344 13.8946C3.97568 15.1033 5.39454 15.9305 6.97 16.2363C6.36353 16.4163 5.73389 16.5112 5.1 16.5182C4.66121 16.5132 4.22352 16.4744 3.791 16.4021C4.23965 17.75 5.10786 18.928 6.27483 19.7721C7.4418 20.6163 8.84948 21.0845 10.302 21.1118C7.84925 22.9945 4.821 24.022 1.7 24.0305C1.13175 24.0323 0.563951 23.9991 0 23.931C3.18653 25.938 6.89998 27.0035 10.693 26.999C13.3105 27.0255 15.9071 26.5429 18.3313 25.5795C20.7555 24.6161 22.9585 23.1912 24.8118 21.3879C26.6652 19.5847 28.1315 17.4392 29.1253 15.0769C30.1192 12.7146 30.6205 10.1828 30.6 7.62941C30.6 7.34749 30.6 7.04899 30.6 6.75049C31.934 5.78004 33.0845 4.59036 34 3.23478Z" fill="#DEDEDE"/>
</svg>
