<svg width="34" height="34" viewBox="0 0 34 34" fill="none" xmlns="http://www.w3.org/2000/svg">
<path d="M32.7602 13.9231C32.9652 15.0214 33.0769 16.1697 33.0769 17.3681C33.0769 26.7414 26.8035 33.4064 17.3285 33.4064C15.1738 33.4071 13.0401 32.9832 11.0492 32.1589C9.05836 31.3346 7.24944 30.1261 5.72581 28.6025C4.20218 27.0788 2.9937 25.2699 2.16942 23.2791C1.34514 21.2882 0.921219 19.1545 0.921876 16.9998C0.921219 14.845 1.34514 12.7113 2.16942 10.7204C2.9937 8.72957 4.20218 6.92065 5.72581 5.39702C7.24944 3.87339 9.05836 2.6649 11.0492 1.84062C13.0401 1.01635 15.1738 0.592422 17.3285 0.593079C21.7585 0.593079 25.4602 2.22308 28.3002 4.86975L23.6752 9.49475V9.48308C21.9535 7.84308 19.7685 7.00141 17.3285 7.00141C11.9152 7.00141 7.51521 11.5747 7.51521 16.9897C7.51521 22.4031 11.9152 26.9864 17.3285 26.9864C22.2402 26.9864 25.5835 24.1781 26.2702 20.3214H17.3285V13.9231H32.7619H32.7602Z" fill="white" fill-opacity="0.77"/>
</svg>
