<svg width="29" height="29" viewBox="0 0 29 29" fill="none" xmlns="http://www.w3.org/2000/svg">
<path d="M22.9587 10.875C22.9587 12.6271 22.4391 14.2342 21.5449 15.5755C20.2399 17.5088 18.1737 18.8742 15.7691 19.2246C15.3582 19.2971 14.9353 19.3334 14.5003 19.3334C14.0653 19.3334 13.6424 19.2971 13.2316 19.2246C10.827 18.8742 8.76074 17.5088 7.45574 15.5755C6.56158 14.2342 6.04199 12.6271 6.04199 10.875C6.04199 6.19877 9.82408 2.41669 14.5003 2.41669C19.1766 2.41669 22.9587 6.19877 22.9587 10.875Z" stroke="white" stroke-width="1.5" stroke-linecap="round" stroke-linejoin="round"/>
<path d="M25.6769 22.3184L23.6831 22.7896C23.2361 22.8984 22.8856 23.2367 22.789 23.6838L22.3661 25.4601C22.1365 26.4267 20.904 26.7167 20.2636 25.9555L14.4998 19.3338L8.73606 25.9675C8.09564 26.7288 6.86314 26.4388 6.63356 25.4721L6.21064 23.6959C6.10189 23.2488 5.75148 22.8984 5.31648 22.8017L3.32273 22.3305C2.40439 22.113 2.07814 20.965 2.74273 20.3004L7.45523 15.588C8.76023 17.5213 10.8265 18.8867 13.2311 19.2371C13.6419 19.3096 14.0648 19.3459 14.4998 19.3459C14.9348 19.3459 15.3577 19.3096 15.7686 19.2371C18.1731 18.8867 20.2394 17.5213 21.5444 15.588L26.2569 20.3004C26.9215 20.9529 26.5952 22.1009 25.6769 22.3184Z" stroke="white" stroke-width="1.5" stroke-linecap="round" stroke-linejoin="round"/>
<path d="M15.2009 7.22581L15.9138 8.65164C16.0105 8.84497 16.2642 9.03831 16.4938 9.07456L17.7867 9.29205C18.6084 9.42497 18.8017 10.0291 18.2096 10.6212L17.2067 11.6241C17.0375 11.7933 16.9409 12.1196 17.0013 12.3612L17.2913 13.6058C17.5209 14.5846 17.0013 14.9712 16.1313 14.4516L14.923 13.7387C14.7055 13.6058 14.343 13.6058 14.1255 13.7387L12.9171 14.4516C12.0471 14.9591 11.5275 14.5846 11.7571 13.6058L12.0471 12.3612C12.0955 12.1316 12.0109 11.7933 11.8417 11.6241L10.8388 10.6212C10.2467 10.0291 10.44 9.43705 11.2617 9.29205L12.5546 9.07456C12.7721 9.03831 13.0259 8.84497 13.1225 8.65164L13.8355 7.22581C14.1859 6.45248 14.8142 6.45248 15.2009 7.22581Z" stroke="white" stroke-width="1.5" stroke-linecap="round" stroke-linejoin="round"/>
</svg>
