<svg width="29" height="29" viewBox="0 0 29 29" fill="none" xmlns="http://www.w3.org/2000/svg">
<path d="M26.5837 14.3671V15.4425C26.5837 19.7442 25.5082 20.8075 21.2187 20.8075H7.78199C3.49241 20.8075 2.41699 19.7321 2.41699 15.4425V7.78169C2.41699 3.4921 3.49241 2.41669 7.78199 2.41669H9.66699" stroke="white" stroke-width="1.5" stroke-linecap="round" stroke-linejoin="round"/>
<path d="M14.5 20.8072V26.583" stroke="white" stroke-width="1.5" stroke-linecap="round" stroke-linejoin="round"/>
<path d="M2.41699 15.7083H26.5837" stroke="white" stroke-width="1.5" stroke-linecap="round" stroke-linejoin="round"/>
<path d="M9.0625 26.5833H19.9375" stroke="white" stroke-width="1.5" stroke-linecap="round" stroke-linejoin="round"/>
<path d="M21.5805 11.3218H15.8288C14.1613 11.3218 13.6055 10.2101 13.6055 9.09847V4.84513C13.6055 3.51597 14.693 2.42847 16.0221 2.42847H21.5805C22.813 2.42847 23.8038 3.4193 23.8038 4.6518V9.09847C23.8038 10.331 22.813 11.3218 21.5805 11.3218Z" stroke="white" stroke-width="1.5" stroke-linecap="round" stroke-linejoin="round"/>
<path d="M25.2658 9.57056L23.8037 8.54348V5.20848L25.2658 4.18139C25.9908 3.68598 26.5829 3.98806 26.5829 4.87014V8.89389C26.5829 9.77598 25.9908 10.0781 25.2658 9.57056Z" stroke="white" stroke-width="1.5" stroke-linecap="round" stroke-linejoin="round"/>
</svg>
