<svg width="29" height="29" viewBox="0 0 29 29" fill="none" xmlns="http://www.w3.org/2000/svg">
    <path opacity="0.63" d="M26.6691 0H2.33088C1.044 0 0 1.044 0 2.33088V26.6691C0 27.956 1.044 29 2.33088 29H26.6691C27.956 29 29 27.956 29 26.6691V2.33088C29 1.044 27.956 0 26.6691 0ZM26.6691 26.68C10.4364 26.6764 2.32 26.6728 2.32 26.6691C2.32362 10.4364 2.32725 2.32 2.33088 2.32C18.5636 2.32362 26.68 2.32725 26.68 2.33088C26.6764 18.5636 26.6728 26.68 26.6691 26.68ZM4.29925 10.8714H8.60212V24.7116H4.29925V10.8714ZM6.4525 8.97913C7.82638 8.97913 8.9465 7.86262 8.9465 6.48512C8.9465 6.15761 8.88199 5.8333 8.75666 5.53071C8.63132 5.22813 8.44761 4.95319 8.21602 4.7216C7.98444 4.49001 7.7095 4.3063 7.40691 4.18097C7.10433 4.05563 6.78002 3.99113 6.4525 3.99113C6.12498 3.99113 5.80067 4.05563 5.49809 4.18097C5.1955 4.3063 4.92057 4.49001 4.68898 4.7216C4.45739 4.95319 4.27368 5.22813 4.14834 5.53071C4.02301 5.8333 3.9585 6.15761 3.9585 6.48512C3.95487 7.86262 5.07137 8.97913 6.4525 8.97913ZM15.5984 17.864C15.5984 16.0587 15.9427 14.3115 18.1794 14.3115C20.3834 14.3115 20.416 16.3741 20.416 17.98V24.7116H24.7152V17.1209C24.7152 13.3944 23.9105 10.527 19.5569 10.527C17.4653 10.527 16.0624 11.6761 15.486 12.7636H15.428V10.8714H11.2991V24.7116H15.5984V17.864Z" fill="white" />
</svg>