<svg width="40" height="40" viewBox="0 0 40 40" fill="none" xmlns="http://www.w3.org/2000/svg">
<rect width="40" height="40" rx="10" fill="white" fill-opacity="0.02"/>
<rect x="0.5" y="0.5" width="39" height="39" rx="9.5" stroke="white" stroke-opacity="0.2"/>
<path d="M20 24.0625C17.7575 24.0625 15.9375 22.2425 15.9375 20C15.9375 17.7575 17.7575 15.9375 20 15.9375C22.2425 15.9375 24.0625 17.7575 24.0625 20C24.0625 22.2425 22.2425 24.0625 20 24.0625ZM20 17.5625C18.6567 17.5625 17.5625 18.6567 17.5625 20C17.5625 21.3433 18.6567 22.4375 20 22.4375C21.3433 22.4375 22.4375 21.3433 22.4375 20C22.4375 18.6567 21.3433 17.5625 20 17.5625Z" fill="white"/>
<path d="M23.4768 31.0392C23.2493 31.0392 23.0218 31.0067 22.7943 30.9525C22.1227 30.7684 21.5593 30.3459 21.2018 29.75L21.0718 29.5334C20.4327 28.4284 19.5552 28.4284 18.916 29.5334L18.7968 29.7392C18.4394 30.3459 17.876 30.7792 17.2043 30.9525C16.5218 31.1367 15.8177 31.0392 15.2218 30.6817L13.3585 29.6092C12.6977 29.23 12.221 28.6125 12.0152 27.865C11.8202 27.1175 11.9177 26.3484 12.2968 25.6875C12.611 25.135 12.6977 24.6367 12.5135 24.3225C12.3293 24.0084 11.8635 23.8242 11.2243 23.8242C9.64268 23.8242 8.35352 22.535 8.35352 20.9534V19.0467C8.35352 17.465 9.64268 16.1759 11.2243 16.1759C11.8635 16.1759 12.3293 15.9917 12.5135 15.6775C12.6977 15.3634 12.6218 14.865 12.2968 14.3125C11.9177 13.6517 11.8202 12.8717 12.0152 12.135C12.2102 11.3875 12.6868 10.77 13.3585 10.3909L15.2327 9.31836C16.4568 8.59253 18.071 9.01503 18.8077 10.2609L18.9377 10.4775C19.5768 11.5825 20.4543 11.5825 21.0935 10.4775L21.2127 10.2717C21.9493 9.01503 23.5635 8.59253 24.7985 9.32919L26.6618 10.4017C27.3227 10.7809 27.7993 11.3984 28.0052 12.1459C28.2002 12.8934 28.1027 13.6625 27.7235 14.3234C27.4093 14.8759 27.3227 15.3742 27.5068 15.6884C27.691 16.0025 28.1569 16.1867 28.796 16.1867C30.3777 16.1867 31.6669 17.4759 31.6669 19.0575V20.9642C31.6669 22.5459 30.3777 23.835 28.796 23.835C28.1569 23.835 27.691 24.0192 27.5068 24.3334C27.3227 24.6475 27.3985 25.1459 27.7235 25.6984C28.1027 26.3592 28.211 27.1392 28.0052 27.8759C27.8102 28.6234 27.3335 29.2409 26.6618 29.62L24.7877 30.6925C24.376 30.92 23.9318 31.0392 23.4768 31.0392ZM19.9993 27.0309C20.9635 27.0309 21.8627 27.6375 22.4802 28.71L22.5993 28.9159C22.7293 29.1434 22.946 29.3059 23.206 29.3709C23.466 29.4359 23.726 29.4034 23.9427 29.2734L25.8169 28.19C26.0985 28.0275 26.3152 27.7567 26.4018 27.4317C26.4885 27.1067 26.4452 26.7709 26.2827 26.4892C25.6652 25.4275 25.5893 24.3334 26.066 23.4992C26.5427 22.665 27.5285 22.1884 28.7635 22.1884C29.4569 22.1884 30.0093 21.6359 30.0093 20.9425V19.0359C30.0093 18.3534 29.4569 17.79 28.7635 17.79C27.5285 17.79 26.5427 17.3134 26.066 16.4792C25.5893 15.645 25.6652 14.5509 26.2827 13.4892C26.4452 13.2075 26.4885 12.8717 26.4018 12.5467C26.3152 12.2217 26.1093 11.9617 25.8277 11.7884L23.9535 10.7159C23.4877 10.4342 22.8702 10.5967 22.5885 11.0734L22.4693 11.2792C21.8518 12.3517 20.9527 12.9584 19.9885 12.9584C19.0243 12.9584 18.1252 12.3517 17.5077 11.2792L17.3885 11.0625C17.1177 10.6075 16.511 10.445 16.0452 10.7159L14.171 11.7992C13.8893 11.9617 13.6727 12.2325 13.586 12.5575C13.4993 12.8825 13.5427 13.2184 13.7052 13.5C14.3227 14.5617 14.3985 15.6559 13.9218 16.49C13.4452 17.3242 12.4593 17.8009 11.2243 17.8009C10.531 17.8009 9.97852 18.3534 9.97852 19.0467V20.9534C9.97852 21.6359 10.531 22.1992 11.2243 22.1992C12.4593 22.1992 13.4452 22.6759 13.9218 23.51C14.3985 24.3442 14.3227 25.4384 13.7052 26.5C13.5427 26.7817 13.4993 27.1175 13.586 27.4425C13.6727 27.7675 13.8785 28.0275 14.1602 28.2009L16.0343 29.2734C16.2618 29.4142 16.5327 29.4467 16.7818 29.3817C17.0418 29.3167 17.2585 29.1434 17.3994 28.9159L17.5185 28.71C18.136 27.6484 19.0352 27.0309 19.9993 27.0309Z" fill="white"/>
</svg>
