<svg width="40" height="40" viewBox="0 0 40 40" fill="none" xmlns="http://www.w3.org/2000/svg">
<rect width="40" height="40" rx="10" fill="white" fill-opacity="0.02"/>
<rect x="0.5" y="0.5" width="39" height="39" rx="9.5" stroke="white" stroke-opacity="0.2"/>
<path d="M13.5 17.8333V15.6666C13.5 12.0808 14.5833 9.16663 20 9.16663C25.4167 9.16663 26.5 12.0808 26.5 15.6666V17.8333" stroke="white" stroke-width="1.5" stroke-linecap="round" stroke-linejoin="round"/>
<path d="M25.417 30.8334H14.5837C10.2503 30.8334 9.16699 29.75 9.16699 25.4167V23.25C9.16699 18.9167 10.2503 17.8334 14.5837 17.8334H25.417C29.7503 17.8334 30.8337 18.9167 30.8337 23.25V25.4167C30.8337 29.75 29.7503 30.8334 25.417 30.8334Z" stroke="white" stroke-width="1.5" stroke-linecap="round" stroke-linejoin="round"/>
<path d="M24.3297 24.3333H24.3394" stroke="white" stroke-width="2" stroke-linecap="round" stroke-linejoin="round"/>
<path d="M19.9947 24.3333H20.0044" stroke="white" stroke-width="2" stroke-linecap="round" stroke-linejoin="round"/>
<path d="M15.6607 24.3333H15.6704" stroke="white" stroke-width="2" stroke-linecap="round" stroke-linejoin="round"/>
</svg>
