<svg width="29" height="29" viewBox="0 0 29 29" fill="none" xmlns="http://www.w3.org/2000/svg">
<path d="M26.5833 10.295V4.80919C26.5833 3.10544 25.81 2.41669 23.8888 2.41669H19.0071C17.0858 2.41669 16.3125 3.10544 16.3125 4.80919V10.2829C16.3125 11.9988 17.0858 12.6754 19.0071 12.6754H23.8888C25.81 12.6875 26.5833 11.9988 26.5833 10.295Z" stroke="white" stroke-width="1.5" stroke-linecap="round" stroke-linejoin="round"/>
<path d="M26.5833 23.8888V19.0071C26.5833 17.0858 25.81 16.3125 23.8888 16.3125H19.0071C17.0858 16.3125 16.3125 17.0858 16.3125 19.0071V23.8888C16.3125 25.81 17.0858 26.5833 19.0071 26.5833H23.8888C25.81 26.5833 26.5833 25.81 26.5833 23.8888Z" stroke="white" stroke-width="1.5" stroke-linecap="round" stroke-linejoin="round"/>
<path d="M12.6878 10.295V4.80919C12.6878 3.10544 11.9145 2.41669 9.99324 2.41669H5.11158C3.19033 2.41669 2.41699 3.10544 2.41699 4.80919V10.2829C2.41699 11.9988 3.19033 12.6754 5.11158 12.6754H9.99324C11.9145 12.6875 12.6878 11.9988 12.6878 10.295Z" stroke="white" stroke-width="1.5" stroke-linecap="round" stroke-linejoin="round"/>
<path d="M12.6878 23.8888V19.0071C12.6878 17.0858 11.9145 16.3125 9.99324 16.3125H5.11158C3.19033 16.3125 2.41699 17.0858 2.41699 19.0071V23.8888C2.41699 25.81 3.19033 26.5833 5.11158 26.5833H9.99324C11.9145 26.5833 12.6878 25.81 12.6878 23.8888Z" stroke="white" stroke-width="1.5" stroke-linecap="round" stroke-linejoin="round"/>
</svg>
