<svg width="29" height="29" viewBox="0 0 29 29" fill="none" xmlns="http://www.w3.org/2000/svg">
<path d="M10.2712 22.9584H9.66699C4.83366 22.9584 2.41699 21.75 2.41699 15.7084V9.66669C2.41699 4.83335 4.83366 2.41669 9.66699 2.41669H19.3337C24.167 2.41669 26.5837 4.83335 26.5837 9.66669V15.7084C26.5837 20.5417 24.167 22.9584 19.3337 22.9584H18.7295C18.3549 22.9584 17.9924 23.1396 17.7628 23.4417L15.9503 25.8584C15.1528 26.9217 13.8478 26.9217 13.0503 25.8584L11.2378 23.4417C11.0445 23.1759 10.5974 22.9584 10.2712 22.9584Z" stroke="white" stroke-width="1.5" stroke-miterlimit="10" stroke-linecap="round" stroke-linejoin="round"/>
<path d="M19.329 13.2917H19.3398" stroke="white" stroke-width="2" stroke-linecap="round" stroke-linejoin="round"/>
<path d="M14.495 13.2917H14.5058" stroke="white" stroke-width="2" stroke-linecap="round" stroke-linejoin="round"/>
<path d="M9.66003 13.2917H9.67088" stroke="white" stroke-width="2" stroke-linecap="round" stroke-linejoin="round"/>
</svg>
