<svg width="499" height="660" viewBox="0 0 499 660" fill="none" xmlns="http://www.w3.org/2000/svg">
<mask id="mask0_179_473" style="mask-type:alpha" maskUnits="userSpaceOnUse" x="0" y="200" width="2" height="302">
<path d="M1.07974 501.852L1.91977 270.712L1.98975 200.262H0.90976L0.829742 270.712L-0.000244141 501.852H1.07974Z" fill="url(#paint0_linear_179_473)"/>
</mask>
<g mask="url(#mask0_179_473)">
<path d="M1.07974 501.852L1.91977 270.712L1.98975 200.262H0.90976L0.829742 270.712L-0.000244141 501.852H1.07974Z" fill="url(#paint1_linear_179_473)"/>
</g>
<path d="M193.33 341.522C195.39 341.522 197.45 341.512 199.51 341.482C221.1 341.192 243.02 339.282 264.21 337.442C295.37 334.732 327.58 331.942 359.23 334.232L359.27 333.622C327.58 331.322 295.33 334.122 264.15 336.832C242.97 338.672 221.06 340.572 199.49 340.862C177.13 341.152 154.46 339.742 132.52 338.372C114.69 337.252 96.25 336.102 78.09 335.882C52.7 335.562 26.96 337.052 2.08002 338.482L2.12 339.092C27 337.662 52.71 336.182 78.09 336.492C96.24 336.712 114.67 337.872 132.49 338.982C152.42 340.232 172.97 341.522 193.33 341.522Z" fill="url(#paint2_linear_179_473)"/>
<path d="M358.99 336.242C360.26 336.322 361.35 335.362 361.43 334.092C361.51 332.822 360.55 331.732 359.28 331.652C358.01 331.572 356.92 332.532 356.84 333.802C356.76 335.072 357.72 336.162 358.99 336.242Z" fill="url(#paint3_linear_179_473)"/>
<path d="M194.49 333.532C227.19 333.532 258.21 331.612 289.06 324.722C309.61 320.132 329.89 313.272 349.49 306.632L367.47 300.542L367.27 299.962L349.29 306.052C329.7 312.682 309.45 319.542 288.92 324.122C243.96 334.162 198.61 333.632 148.24 332.002C99.7397 330.432 50.5897 328.182 2.14972 325.302L2.10971 325.912C50.5597 328.782 99.7197 331.042 148.22 332.612C164.1 333.132 179.47 333.532 194.49 333.532Z" fill="url(#paint4_linear_179_473)"/>
<path d="M368.01 302.472C369.21 302.062 369.86 300.762 369.45 299.552C369.04 298.352 367.74 297.702 366.53 298.112C365.33 298.522 364.68 299.822 365.09 301.032C365.5 302.232 366.8 302.872 368.01 302.472Z" fill="url(#paint5_linear_179_473)"/>
<path d="M221.21 360.802C224.22 360.802 227.23 360.772 230.24 360.722C275.35 359.912 295.83 350.772 308.62 342.892C327.73 331.132 341.61 312.832 355.03 295.132C362.09 285.822 369.39 276.192 377.39 267.592C380.51 264.232 383.83 260.942 387.03 257.762L388.08 256.722L387.65 256.292L386.6 257.332C383.39 260.522 380.08 263.812 376.94 267.182C368.92 275.812 361.61 285.452 354.54 294.772C341.15 312.422 327.31 330.682 308.3 342.382C284.06 357.292 253.84 359.692 230.22 360.122C198.02 360.702 165.28 358.022 133.61 355.432C90.4296 351.892 45.7696 348.242 2.00958 352.832L2.06958 353.442C45.7696 348.852 90.3996 352.502 133.55 356.042C162.3 358.372 191.91 360.802 221.21 360.802Z" fill="url(#paint6_linear_179_473)"/>
<path d="M389.44 258.212C390.33 257.312 390.32 255.852 389.42 254.962C388.52 254.072 387.06 254.082 386.17 254.982C385.28 255.882 385.29 257.342 386.19 258.232C387.09 259.132 388.55 259.112 389.44 258.212Z" fill="url(#paint7_linear_179_473)"/>
<path d="M128.78 341.991C158.52 341.991 188.28 340.341 217.36 338.731C235.35 337.731 253.95 336.701 271.74 332.161C307.58 323.001 341.62 299.571 375.82 260.531L375.36 260.131C341.24 299.081 307.3 322.451 271.59 331.571C253.86 336.101 235.29 337.131 217.33 338.121C176.33 340.391 133.94 342.741 92.2503 340.431C83.3303 339.941 74.2703 339.221 65.5003 338.521C45.1303 336.911 24.0803 335.241 3.3403 336.251C15.5103 329.241 28.9703 325.581 43.3903 325.391C66.5703 325.071 90.0803 326.801 112.82 328.461C124.94 329.351 137.48 330.261 149.82 330.861C179.75 332.311 218.82 332.541 255.58 321.331C292.23 310.161 321.62 288.781 338.34 261.141L337.82 260.821C321.18 288.331 291.91 309.611 255.41 320.741C218.74 331.921 179.74 331.691 149.86 330.241C137.53 329.641 124.99 328.731 112.87 327.841C90.1203 326.181 66.5903 324.461 43.3903 324.771C28.4403 324.971 14.5003 328.871 1.9603 336.351L0.900299 336.981L2.14032 336.911C23.2503 335.771 44.7103 337.471 65.4703 339.111C74.2403 339.801 83.3103 340.521 92.2303 341.021C104.36 341.711 116.57 341.991 128.78 341.991Z" fill="url(#paint8_linear_179_473)"/>
<path d="M339.94 262.262C340.61 261.182 340.27 259.762 339.19 259.092C338.11 258.422 336.69 258.762 336.02 259.842C335.35 260.922 335.69 262.342 336.77 263.012C337.85 263.682 339.27 263.342 339.94 262.262Z" fill="url(#paint9_linear_179_473)"/>
<path d="M373.78 258.832C374.63 257.892 376.09 257.812 377.03 258.672C377.97 259.522 378.05 260.982 377.19 261.922C376.34 262.862 374.88 262.942 373.94 262.082C373 261.232 372.93 259.772 373.78 258.832Z" fill="url(#paint10_linear_179_473)"/>
<path d="M343.84 393.312L344.2 392.822C330.53 382.742 318.05 373.972 303.67 368.682C292.37 364.532 280.34 362.802 270.06 361.662C245.05 358.892 219.47 358.562 196.9 358.272C132.21 357.442 66.6497 357.102 2.04968 357.252V357.862C66.6497 357.712 132.21 358.052 196.89 358.882C219.44 359.172 245.01 359.502 269.99 362.272C280.24 363.412 292.22 365.122 303.46 369.252C317.76 374.512 330.21 383.262 343.84 393.312Z" fill="url(#paint11_linear_179_473)"/>
<path d="M342.57 394.862C343.6 395.612 345.03 395.382 345.78 394.362C346.53 393.332 346.3 391.902 345.28 391.152C344.25 390.402 342.82 390.632 342.07 391.652C341.31 392.682 341.54 394.122 342.57 394.862Z" fill="url(#paint12_linear_179_473)"/>
<path d="M125.96 308.021C126.64 308.021 127.33 308.021 128.01 308.021C177.98 307.811 217.85 299.071 249.92 281.321C257.89 276.911 268.98 269.761 273.17 258.701L272.6 258.481C268.48 269.361 257.51 276.421 249.62 280.791C217.65 298.491 177.87 307.201 128.01 307.421C104.28 307.521 80.2199 305.811 56.9399 304.161C39.0199 302.891 20.4799 301.571 2.21991 301.091L2.19995 301.701C20.45 302.181 38.9799 303.501 56.8899 304.771C79.5099 306.361 102.88 308.021 125.96 308.021Z" fill="url(#paint13_linear_179_473)"/>
<path d="M275.01 259.421C275.42 258.221 274.77 256.911 273.57 256.511C272.37 256.101 271.06 256.751 270.66 257.951C270.25 259.151 270.9 260.461 272.1 260.861C273.3 261.271 274.61 260.631 275.01 259.421Z" fill="url(#paint14_linear_179_473)"/>
<path d="M417.21 393.961C418.63 393.961 420.06 393.871 421.51 393.671L421.43 393.061C406.91 395.021 393.39 386.331 380.32 377.931C378.29 376.621 376.19 375.271 374.14 374.001C354.19 361.621 330.09 352.741 300.48 346.861C244.1 335.661 185.54 338.451 128.91 341.151C87.2502 343.141 44.1702 345.191 2.12024 341.691L2.07025 342.301C44.1603 345.801 87.2602 343.751 128.94 341.761C185.53 339.061 244.05 336.271 300.36 347.461C329.9 353.331 353.93 362.181 373.82 374.521C375.86 375.781 377.96 377.141 379.99 378.441C391.86 386.091 404.1 393.961 417.21 393.961Z" fill="url(#paint15_linear_179_473)"/>
<path d="M421.69 395.621C422.95 395.431 423.81 394.261 423.62 393.001C423.43 391.741 422.26 390.881 421 391.071C419.74 391.261 418.88 392.431 419.07 393.691C419.26 394.951 420.43 395.811 421.69 395.621Z" fill="url(#paint16_linear_179_473)"/>
<path d="M221.17 371.133C229.2 371.133 237.21 370.883 245.19 370.283C262.43 368.993 279.79 366.063 296.57 363.223C316.23 359.903 336.55 356.463 356.77 355.663C366.83 355.263 377.13 355.503 387.1 355.723C408.11 356.203 429.84 356.693 450.35 351.263L450.19 350.673C429.76 356.083 408.08 355.593 387.11 355.113C377.13 354.883 366.82 354.653 356.74 355.053C336.48 355.863 316.13 359.293 296.46 362.623C279.69 365.453 262.35 368.393 245.13 369.673C215.62 371.883 185.57 369.343 156.5 366.893C153.02 366.603 149.55 366.303 146.08 366.023C98.1296 362.083 49.2896 359.593 2.06961 357.173L2.03961 357.783C49.2596 360.193 98.0896 362.693 146.04 366.633C149.51 366.923 152.99 367.213 156.46 367.503C177.69 369.303 199.46 371.133 221.17 371.133Z" fill="url(#paint17_linear_179_473)"/>
<path d="M450.72 353.192C451.95 352.872 452.69 351.622 452.37 350.392C452.05 349.162 450.8 348.422 449.57 348.742C448.34 349.062 447.6 350.312 447.92 351.542C448.24 352.772 449.49 353.512 450.72 353.192Z" fill="url(#paint18_linear_179_473)"/>
<path d="M322.57 402.542L322.75 401.962C218.79 369.712 108.58 370.442 2.01001 371.142V371.752C108.54 371.042 218.69 370.322 322.57 402.542Z" fill="url(#paint19_linear_179_473)"/>
<path d="M321.89 404.462C323.11 404.822 324.39 404.122 324.75 402.902C325.11 401.682 324.41 400.402 323.19 400.052C321.97 399.692 320.69 400.392 320.34 401.612C319.97 402.822 320.67 404.102 321.89 404.462Z" fill="url(#paint20_linear_179_473)"/>
<path d="M241.22 315.352C243.69 315.352 246.15 315.302 248.62 315.202C256.57 314.882 266.91 313.972 276.34 309.762C287.55 304.752 296.24 295.682 303.26 287.462C315.39 273.262 325.9 257.652 334.49 241.062L333.95 240.782C325.38 257.332 314.9 272.902 302.8 287.072C295.82 295.242 287.19 304.252 276.09 309.212C266.76 313.382 256.5 314.282 248.6 314.602C223.16 315.632 197.55 311.052 172.8 306.632C160.83 304.492 148.45 302.282 136.23 300.722C99.3902 296.032 61.6902 297.002 25.2402 297.932C16.3302 298.162 7.84024 298.822 2.00024 304.372L2.42023 304.812C8.10023 299.412 16.4602 298.762 25.2502 298.542C61.6802 297.612 99.3502 296.642 136.15 301.332C148.36 302.882 160.73 305.102 172.69 307.242C195.07 311.222 218.15 315.352 241.22 315.352Z" fill="url(#paint21_linear_179_473)"/>
<path d="M336.13 242.092C336.74 240.972 336.33 239.582 335.21 238.972C334.09 238.362 332.7 238.772 332.09 239.892C331.48 241.012 331.89 242.402 333.01 243.012C334.13 243.612 335.52 243.202 336.13 242.092Z" fill="url(#paint22_linear_179_473)"/>
<path d="M2.28966 278.662C23.0297 277.622 44.1797 277.462 64.6297 277.302C99.1697 277.032 134.9 276.762 169.72 272.252C208.78 267.192 236.72 257.192 257.64 240.802L257.26 240.322C236.43 256.652 208.58 266.602 169.64 271.652C134.85 276.162 99.1497 276.432 64.6297 276.702C44.1697 276.862 23.0197 277.022 2.25966 278.062L2.28966 278.662Z" fill="url(#paint23_linear_179_473)"/>
<path d="M258.74 242.422C259.75 241.642 259.93 240.202 259.16 239.192C258.38 238.182 256.94 238.002 255.93 238.772C254.92 239.552 254.74 240.992 255.51 242.002C256.29 243.012 257.74 243.192 258.74 242.422Z" fill="url(#paint24_linear_179_473)"/>
<path d="M2.43015 277.622C41.6001 255.562 78.8502 253.062 108.79 251.062C114.61 250.672 120.11 250.302 125.26 249.812C130.01 249.362 134.89 248.932 139.6 248.532C175.8 245.392 213.24 242.152 242.96 221.292C244.49 220.212 246.19 218.892 247.16 217.232L246.63 216.922C245.72 218.482 244.09 219.752 242.61 220.782C213.02 241.542 175.67 244.782 139.54 247.912C134.83 248.322 129.95 248.742 125.19 249.192C120.04 249.682 114.55 250.052 108.73 250.442C78.7302 252.452 41.4001 254.952 2.11014 277.082L2.43015 277.622Z" fill="url(#paint25_linear_179_473)"/>
<path d="M248.97 217.981C249.42 216.791 248.82 215.461 247.63 215.021C246.44 214.571 245.11 215.171 244.67 216.361C244.22 217.551 244.82 218.881 246.01 219.321C247.2 219.771 248.53 219.171 248.97 217.981Z" fill="url(#paint26_linear_179_473)"/>
<path d="M6.31995 292.072C26.3499 292.072 46.1899 273.402 65.4099 255.322C83.9899 237.842 103.19 219.772 122.41 218.692C166.99 216.192 185.52 205.522 196.69 196.522L196.31 196.042C175.18 213.082 145.7 216.772 122.38 218.082C102.94 219.172 83.6499 237.322 64.9899 254.872C45.1899 273.502 24.7299 292.752 4.23993 291.382L4.19995 291.992C4.90995 292.052 5.61995 292.072 6.31995 292.072Z" fill="url(#paint27_linear_179_473)"/>
<path d="M197.82 198.122C198.81 197.332 198.97 195.882 198.18 194.892C197.39 193.902 195.94 193.742 194.95 194.532C193.96 195.322 193.8 196.772 194.59 197.762C195.38 198.752 196.83 198.922 197.82 198.122Z" fill="url(#paint28_linear_179_473)"/>
<path d="M281.7 400.812L281.97 400.262C247.44 383.422 205.88 374.152 158.43 372.702C113.5 371.332 66.7797 377.042 29.2297 381.622C18.4897 382.932 8.29973 384.712 1.71973 391.932L2.16974 392.342C8.60974 385.282 18.6797 383.532 29.2997 382.232C66.8297 377.652 113.53 371.952 158.4 373.312C205.77 374.752 247.25 384.012 281.7 400.812Z" fill="url(#paint29_linear_179_473)"/>
<path d="M280.73 402.582C281.88 403.132 283.25 402.642 283.8 401.502C284.35 400.352 283.86 398.982 282.72 398.432C281.57 397.882 280.2 398.372 279.65 399.512C279.1 400.662 279.58 402.042 280.73 402.582Z" fill="url(#paint30_linear_179_473)"/>
<path d="M71.0602 372.883C81.7002 372.883 91.9902 372.483 101.72 371.963C143.33 369.743 185.36 364.353 226 359.143C262.76 354.433 300.77 349.553 337.23 339.853C354.11 335.363 373.26 329.023 387.37 316.083C396.52 307.693 403.16 296.913 409.58 286.493C414.61 278.333 419.8 269.903 426.18 262.633C435.93 251.513 448.49 243.073 462.49 238.213L462.29 237.633C448.19 242.533 435.54 251.033 425.72 262.233C419.31 269.533 414.1 277.993 409.06 286.173C402.66 296.553 396.05 307.293 386.96 315.633C372.95 328.483 353.88 334.793 337.08 339.263C300.67 348.963 262.67 353.833 225.93 358.543C185.3 363.753 143.29 369.143 101.69 371.363C71.7502 372.963 36.5102 373.413 2.11023 364.633L1.96024 365.223C25.2402 371.153 48.9102 372.883 71.0602 372.883Z" fill="url(#paint31_linear_179_473)"/>
<path d="M463.06 240.172C464.26 239.742 464.88 238.432 464.45 237.232C464.02 236.032 462.71 235.412 461.51 235.842C460.31 236.272 459.69 237.582 460.12 238.782C460.55 239.972 461.86 240.592 463.06 240.172Z" fill="url(#paint32_linear_179_473)"/>
<path d="M413.38 394.432C413.93 394.432 414.48 394.432 415.03 394.422L415.02 393.812C414.47 393.822 413.92 393.822 413.38 393.822C391.01 393.822 369.25 386.062 348.18 378.552C339.46 375.442 330.44 372.222 321.49 369.602C293.95 361.532 264.86 358.482 236.73 355.532C232.02 355.042 227.32 354.542 222.62 354.032C211.13 352.772 199.41 351.352 188.07 349.972C126.53 342.502 62.8898 334.782 1.99979 348.452L2.12979 349.052C62.9198 335.402 126.5 343.112 187.99 350.572C199.33 351.952 211.06 353.372 222.55 354.632C227.25 355.152 231.96 355.642 236.67 356.132C264.78 359.072 293.84 362.122 321.32 370.182C330.25 372.802 339.26 376.012 347.98 379.122C369.1 386.662 390.91 394.432 413.38 394.432Z" fill="url(#paint33_linear_179_473)"/>
<path d="M414.93 396.372C416.2 396.362 417.22 395.322 417.21 394.052C417.2 392.782 416.16 391.762 414.89 391.772C413.62 391.782 412.6 392.822 412.61 394.092C412.62 395.362 413.66 396.382 414.93 396.372Z" fill="url(#paint34_linear_179_473)"/>
<path d="M246.44 406.502L246.64 405.922C219.74 396.472 198.14 376.332 177.26 356.852C169.68 349.782 161.84 342.472 153.86 335.772C145.54 328.792 135.46 321.182 123.81 317.712C105.02 312.112 85.2702 317.602 66.1702 322.912L62.6501 323.892C27.5101 333.582 12.4201 329.222 2.29015 323.672L2.00014 324.212C20.2401 334.192 42.9801 329.952 62.8201 324.482L66.3501 323.502C85.3701 318.212 105.04 312.752 123.65 318.302C135.19 321.742 145.2 329.302 153.48 336.242C161.45 342.922 169.28 350.232 176.86 357.302C197.78 376.822 219.43 397.012 246.44 406.502Z" fill="url(#paint35_linear_179_473)"/>
<path d="M245.66 408.282C246.85 408.722 248.17 408.112 248.61 406.912C249.05 405.722 248.44 404.402 247.24 403.962C246.05 403.522 244.73 404.132 244.29 405.332C243.85 406.522 244.46 407.842 245.66 408.282Z" fill="url(#paint36_linear_179_473)"/>
<path d="M224.16 412.852L224.3 412.252C205.9 407.982 190.16 396.282 174.94 384.972C160.91 374.552 146.41 363.772 129.7 358.602C110.93 352.792 90.4798 354.362 70.7098 355.892C47.2398 357.702 22.9798 359.572 2.20981 348.692L1.92981 349.232C22.8498 360.192 47.2098 358.322 70.7598 356.502C90.4798 354.982 110.86 353.412 129.52 359.192C146.13 364.332 160.59 375.082 174.58 385.472C189.85 396.812 205.65 408.552 224.16 412.852Z" fill="url(#paint37_linear_179_473)"/>
<path d="M223.62 414.752C224.86 415.032 226.09 414.252 226.37 413.012C226.65 411.772 225.87 410.542 224.63 410.262C223.39 409.982 222.16 410.762 221.88 412.002C221.6 413.242 222.38 414.472 223.62 414.752Z" fill="url(#paint38_linear_179_473)"/>
<path d="M266.69 408.212L267.06 407.732C245.4 391.082 218.45 382.332 191.19 383.112C180.33 383.422 169.41 385.242 158.85 387.012C146.52 389.072 133.78 391.192 121.09 390.912C109.23 390.642 97.3601 388.242 85.8801 385.922C81.7001 385.082 77.37 384.202 73.11 383.442C49.65 379.272 25.7101 378.132 1.95007 380.072L2.00006 380.682C25.7001 378.752 49.5901 379.882 73.0001 384.042C77.2601 384.802 81.5801 385.672 85.7601 386.522C97.2601 388.842 109.16 391.252 121.07 391.522C133.79 391.812 146.58 389.682 158.94 387.612C169.48 385.852 180.38 384.032 191.2 383.722C218.33 382.952 245.14 391.652 266.69 408.212Z" fill="url(#paint39_linear_179_473)"/>
<path d="M265.37 409.752C266.38 410.522 267.82 410.332 268.59 409.322C269.36 408.312 269.17 406.872 268.16 406.102C267.15 405.332 265.71 405.522 264.94 406.532C264.17 407.542 264.36 408.982 265.37 409.752Z" fill="url(#paint40_linear_179_473)"/>
<path d="M6.24026 294.652C25.9303 294.462 44.9103 279.632 63.2703 265.292C81.5503 251.012 100.44 236.252 119.93 236.062C141.69 235.852 164.19 235.642 185.7 230.132C208.74 224.242 227.68 212.402 239.03 196.812L238.54 196.452C227.27 211.932 208.45 223.682 185.55 229.542C164.11 235.032 141.65 235.242 119.92 235.452C100.23 235.642 81.2503 250.472 62.8903 264.812C44.6103 279.092 25.7203 293.852 6.23029 294.042L6.24026 294.652Z" fill="url(#paint41_linear_179_473)"/>
<path d="M240.55 198.062C241.3 197.032 241.07 195.592 240.04 194.852C239.01 194.102 237.57 194.332 236.83 195.362C236.08 196.392 236.31 197.832 237.34 198.572C238.37 199.322 239.81 199.092 240.55 198.062Z" fill="url(#paint42_linear_179_473)"/>
<path d="M60.4201 283.073C64.1301 283.073 67.8401 282.923 71.5501 282.573C82.5501 281.523 98.2001 278.033 110.32 267.403C123.48 255.863 129.58 238.743 135.48 222.193C136.62 218.983 137.8 215.673 139.01 212.473C148.33 187.803 161.07 173.113 176.87 168.803L176.71 168.213C160.7 172.573 147.83 187.383 138.44 212.253C137.23 215.453 136.05 218.773 134.9 221.983C129.03 238.463 122.95 255.503 109.91 266.933C97.9101 277.453 82.3901 280.913 71.4801 281.953C57.4701 283.293 43.2701 281.683 29.5301 280.133L2.31012 277.053L2.24011 277.663L29.4601 280.743C39.6101 281.893 50.0101 283.073 60.4201 283.073Z" fill="url(#paint43_linear_179_473)"/>
<path d="M177.27 170.802C178.5 170.472 179.23 169.222 178.9 167.992C178.57 166.762 177.32 166.032 176.09 166.362C174.86 166.692 174.13 167.942 174.46 169.172C174.79 170.392 176.05 171.132 177.27 170.802Z" fill="url(#paint44_linear_179_473)"/>
<path d="M268.39 369.002C289.09 369.002 309.78 368.222 330.27 366.102C364.45 362.572 379.21 355.472 389.13 349.002C400.85 341.362 410.23 330.572 419.31 320.142C421.07 318.122 422.83 316.092 424.61 314.102C449.29 286.312 472.1 269.852 496.4 262.302L496.22 261.722C471.81 269.302 448.91 285.822 424.16 313.702C422.38 315.702 420.62 317.722 418.86 319.752C409.81 330.152 400.45 340.902 388.81 348.502C378.95 354.932 364.27 361.982 330.22 365.502C279.84 370.712 228.21 367.852 178.27 365.082C120.22 361.862 60.1999 358.542 1.9899 367.912L2.0899 368.512C60.2299 359.162 120.22 362.482 178.24 365.692C207.88 367.322 238.14 369.002 268.39 369.002Z" fill="url(#paint45_linear_179_473)"/>
<path d="M496.9 264.272C498.11 263.892 498.78 262.592 498.4 261.382C498.02 260.172 496.72 259.502 495.51 259.882C494.3 260.262 493.63 261.562 494.01 262.772C494.39 263.992 495.69 264.652 496.9 264.272Z" fill="url(#paint46_linear_179_473)"/>
<path d="M309.079 418.442L309.229 417.852C297.739 414.912 286.569 407.892 276.029 396.972C268.329 389.002 261.739 379.832 255.359 370.962C253.649 368.582 251.94 366.212 250.21 363.862C220.03 322.782 188.869 297.562 154.939 286.772C133.759 280.032 112.789 279.522 94.3295 285.302C84.6695 288.322 75.5695 293.132 66.7595 297.772C61.2295 300.692 55.5195 303.702 49.7195 306.252C36.8895 311.892 18.2395 317.022 2.30951 309.432L2.0495 309.982C18.1895 317.662 37.0195 312.492 49.9695 306.812C55.7895 304.252 61.5095 301.232 67.0495 298.312C75.8295 293.682 84.9095 288.882 94.5095 285.882C112.86 280.142 133.69 280.652 154.76 287.352C188.56 298.102 219.619 323.242 249.719 364.222C251.449 366.572 253.159 368.952 254.859 371.322C261.249 380.212 267.859 389.402 275.589 397.402C286.209 408.392 297.479 415.472 309.079 418.442Z" fill="url(#paint47_linear_179_473)"/>
<path d="M308.47 420.272C309.7 420.592 310.96 419.862 311.28 418.642C311.6 417.412 310.87 416.152 309.65 415.832C308.42 415.512 307.16 416.242 306.84 417.462C306.51 418.692 307.24 419.952 308.47 420.272Z" fill="url(#paint48_linear_179_473)"/>
<path d="M341.53 403.771C344.64 403.771 347.33 403.501 349.54 403.131L349.44 402.531C339.04 404.241 317.78 403.891 292.27 382.241C283.72 374.981 275.95 366.601 268.44 358.491C261.44 350.931 254.2 343.111 246.32 336.201C232.87 324.401 217.27 315.661 201.21 310.921C183.68 305.741 166.3 305.671 150.93 310.711C143.39 313.181 136.22 316.891 129.29 320.471C123.94 323.241 118.4 326.101 112.73 328.371C89.6296 337.641 63.3396 337.551 40.1196 337.481C27.9596 337.441 14.1896 337.401 2.22955 332.221L1.98956 332.781C14.0596 338.011 27.8996 338.061 40.1196 338.091C63.3896 338.171 89.7495 338.241 112.96 328.931C118.65 326.641 124.2 323.781 129.57 321.001C136.48 317.431 143.62 313.741 151.12 311.281C174.29 303.681 211.36 306.351 245.92 336.651C253.77 343.531 261 351.341 268 358.891C275.52 367.011 283.3 375.411 291.88 382.691C312.18 399.931 329.83 403.771 341.53 403.771Z" fill="url(#paint49_linear_179_473)"/>
<path d="M349.76 405.072C351.01 404.862 351.86 403.672 351.65 402.422C351.44 401.172 350.25 400.322 349 400.532C347.75 400.742 346.9 401.932 347.11 403.182C347.32 404.442 348.5 405.292 349.76 405.072Z" fill="url(#paint50_linear_179_473)"/>
<path d="M361.82 407.792C368.17 407.792 374.53 407.122 380.77 405.792L380.64 405.192C366.13 408.302 350.95 407.752 336.74 403.612C322.58 399.492 309.57 391.882 296.98 384.522C293 382.192 288.89 379.792 284.8 377.532C264.86 366.512 244.29 358.312 223.68 353.152C205.54 348.612 189.35 346.912 174.19 347.982C162.46 348.802 150.77 351.362 139.47 353.842C133.55 355.142 127.43 356.482 121.38 357.562C82.89 364.402 43.02 361.262 6.08002 348.482C4.65002 347.992 3.20002 347.402 2.58002 346.162C2.26002 345.522 2.39005 344.582 2.89005 343.972C3.09005 343.732 3.50004 343.342 4.10004 343.492L4.25003 342.902C3.57003 342.732 2.91004 342.982 2.42004 343.592C1.78004 344.392 1.62004 345.592 2.04004 346.442C2.76004 347.892 4.41005 348.562 5.89005 349.072C42.93 361.882 82.91 365.032 121.5 358.172C127.57 357.092 133.69 355.752 139.62 354.452C150.9 351.982 162.56 349.422 174.25 348.602C189.35 347.552 205.47 349.232 223.55 353.762C244.11 358.912 264.63 367.092 284.52 378.082C288.6 380.332 292.71 382.742 296.69 385.062C309.31 392.442 322.36 400.072 336.59 404.212C344.76 406.592 353.29 407.792 361.82 407.792Z" fill="url(#paint51_linear_179_473)"/>
<path d="M381.04 407.731C382.28 407.471 383.09 406.261 382.83 405.011C382.57 403.771 381.36 402.961 380.11 403.221C378.87 403.481 378.06 404.691 378.32 405.941C378.58 407.181 379.8 407.981 381.04 407.731Z" fill="url(#paint52_linear_179_473)"/>
<path d="M357.05 422.072C369.45 422.072 381.69 421.012 393.66 418.852L393.55 418.252C332.12 429.342 263.28 411.432 204.68 369.132C200.91 366.412 197.11 363.542 193.44 360.772C179.66 350.372 165.4 339.622 149 333.652C122.1 323.862 92.9502 327.932 64.7502 331.872C44.1102 334.762 22.7602 337.742 2.14017 335.412L2.07016 336.022C22.7702 338.362 44.1501 335.372 64.8301 332.482C92.9501 328.552 122.03 324.492 148.79 334.232C165.1 340.172 179.32 350.892 193.07 361.262C196.74 364.032 200.54 366.902 204.32 369.622C251.64 403.792 305.63 422.072 357.05 422.072Z" fill="url(#paint53_linear_179_473)"/>
<path d="M393.84 420.782C395.09 420.582 395.95 419.402 395.75 418.152C395.55 416.902 394.37 416.042 393.12 416.242C391.87 416.442 391.01 417.622 391.21 418.872C391.4 420.132 392.58 420.982 393.84 420.782Z" fill="url(#paint54_linear_179_473)"/>
<path d="M200.89 424.252L201.27 423.782C188.3 413.272 172.78 406.192 156.37 403.292C141.81 400.722 126.75 401.472 112.18 402.192C110.25 402.292 108.32 402.382 106.39 402.472C88.07 403.312 68.56 403.492 50.01 399.142C29.81 394.412 12.84 384.392 2.24002 370.942L1.76004 371.322C12.45 384.882 29.53 394.972 49.87 399.732C68.5 404.092 88.06 403.922 106.41 403.072C108.34 402.982 110.27 402.892 112.2 402.792C126.73 402.072 141.76 401.322 156.25 403.882C172.57 406.772 188 413.812 200.89 424.252Z" fill="url(#paint55_linear_179_473)"/>
<path d="M199.53 425.782C200.53 426.572 201.97 426.402 202.76 425.412C203.55 424.412 203.38 422.972 202.39 422.182C201.39 421.392 199.95 421.562 199.16 422.552C198.37 423.552 198.54 425.002 199.53 425.782Z" fill="url(#paint56_linear_179_473)"/>
<path d="M180.53 434.752L181 434.362C171.93 423.602 156.38 417.782 134.76 417.072C130.57 416.932 126.29 416.942 122.14 416.932C108.81 416.932 95.09 416.942 82.54 412.352C69.04 407.422 57.72 397.482 46.78 387.872C33.44 376.162 19.65 364.052 2.09 361.442L2 362.052C19.38 364.632 32.49 376.142 46.38 388.332C57.37 397.982 68.73 407.952 82.34 412.932C95 417.562 108.8 417.572 122.15 417.552C126.28 417.552 130.58 417.552 134.75 417.692C156.17 418.382 171.58 424.122 180.53 434.752Z" fill="url(#paint57_linear_179_473)"/>
<path d="M178.89 435.942C179.69 436.922 181.14 437.072 182.13 436.272C183.11 435.472 183.26 434.022 182.46 433.032C181.66 432.052 180.21 431.902 179.22 432.702C178.23 433.502 178.08 434.952 178.89 435.942Z" fill="url(#paint58_linear_179_473)"/>
<path d="M145.17 435.922L145.53 435.432C133.76 426.712 118.18 424.452 105.92 423.462C103.08 423.232 100.17 423.042 97.3598 422.862C85.7198 422.112 73.6898 421.332 62.6298 417.342C47.8298 412.002 35.2598 400.892 28.1498 386.862C26.0498 382.712 24.2698 378.122 22.5498 373.682C18.0098 361.972 13.3198 349.862 2.21979 344.442L1.9498 344.992C12.8298 350.312 17.4798 362.312 21.9798 373.912C23.7098 378.362 25.4898 382.972 27.6098 387.142C34.7898 401.322 47.4798 412.542 62.4298 417.932C73.5698 421.942 85.6498 422.732 97.3298 423.482C100.14 423.662 103.04 423.852 105.88 424.082C118.05 425.052 133.53 427.292 145.17 435.922Z" fill="url(#paint59_linear_179_473)"/>
<path d="M143.85 437.432C144.86 438.212 146.3 438.022 147.08 437.012C147.86 436.002 147.67 434.562 146.66 433.782C145.65 433.002 144.21 433.192 143.43 434.202C142.65 435.212 142.84 436.662 143.85 437.432Z" fill="url(#paint60_linear_179_473)"/>
<path d="M78.45 432.912C78.82 432.912 79.18 432.912 79.54 432.902L79.52 432.292C63.03 432.712 46.59 423.362 38.65 409.022C32.62 398.132 31.37 385.312 30.15 372.912C29.97 371.122 29.8 369.332 29.61 367.542C28.34 355.582 26.32 343.562 23.62 331.842C19.45 313.792 12.48 303.462 2.30002 300.262L2.12003 300.842C12.07 303.972 18.91 314.162 23.03 331.972C25.73 343.672 27.74 355.662 29.01 367.602C29.2 369.382 29.37 371.172 29.55 372.962C30.77 385.422 32.03 398.312 38.12 409.312C45.99 423.532 62.09 432.912 78.45 432.912Z" fill="url(#paint61_linear_179_473)"/>
<path d="M79.5099 434.871C80.7799 434.821 81.7699 433.751 81.7199 432.481C81.6699 431.211 80.5999 430.221 79.3299 430.271C78.0599 430.321 77.0699 431.391 77.1199 432.661C77.1699 433.931 78.2399 434.921 79.5099 434.871Z" fill="url(#paint62_linear_179_473)"/>
<path d="M255.51 454.372L255.98 453.992C235.52 428.732 213 403.532 182.54 397.172C174.53 395.502 166.21 395.222 158.16 394.962C156.09 394.892 154.01 394.822 151.94 394.732C137.9 394.112 119.9 392.232 105.3 383.072C90.36 373.712 80.58 357.952 71.12 342.712C70.63 341.932 70.15 341.142 69.66 340.362C64.28 328.292 58.02 316.622 47.67 308.552C43.62 305.392 38.93 302.822 33.65 300.862C32.77 300.412 31.88 299.992 30.97 299.582C22.11 295.672 11.37 293.622 2.20998 294.082L1.64998 294.112L1.96999 294.562C4.16999 297.662 10.68 297.862 16.42 298.042C19.03 298.122 21.49 298.202 23.21 298.552C26.82 299.282 30.22 300.242 33.4 301.422C49.26 309.552 59.47 325.142 69.12 340.652C70.34 343.382 71.51 346.122 72.67 348.852C78.63 362.822 84.79 377.262 96.1 387.302C108.97 398.732 126.37 402.632 143.2 406.412C159.08 409.972 175.51 413.662 188.17 423.652C192.89 427.382 197.04 431.962 201.05 436.402C206.15 442.042 211.42 447.872 217.9 451.952L218.23 451.432C211.82 447.402 206.58 441.602 201.51 435.982C197.48 431.522 193.31 426.922 188.55 423.162C175.78 413.082 159.29 409.382 143.34 405.802C126.59 402.042 109.27 398.162 96.51 386.832C85.31 376.882 79.17 362.502 73.24 348.602C72.63 347.172 72.02 345.732 71.4 344.302C80.65 359.202 90.34 374.412 104.98 383.592C119.7 392.822 137.8 394.722 151.92 395.342C153.99 395.432 156.07 395.502 158.14 395.572C166.16 395.832 174.46 396.112 182.42 397.772C212.69 404.082 235.12 429.192 255.51 454.372ZM38.02 303.352C41.41 304.962 44.52 306.852 47.31 309.032C56.33 316.062 62.23 325.902 67.17 336.352C59.08 323.582 50.33 311.182 38.02 303.352ZM4.81999 294.632C12.43 294.632 20.87 296.252 28.28 299.132C26.68 298.692 25.03 298.302 23.34 297.952C21.57 297.592 19.08 297.512 16.45 297.432C11.17 297.262 5.21998 297.082 2.86998 294.662C3.49998 294.642 4.15999 294.632 4.81999 294.632Z" fill="url(#paint63_linear_179_473)"/>
<path d="M216.79 453.593C217.88 454.243 219.29 453.893 219.95 452.803C220.6 451.713 220.25 450.303 219.16 449.643C218.07 448.993 216.66 449.343 216 450.433C215.35 451.523 215.7 452.933 216.79 453.593Z" fill="url(#paint64_linear_179_473)"/>
<path d="M257.45 452.642C258.25 453.622 258.11 455.072 257.13 455.882C256.15 456.682 254.7 456.542 253.89 455.562C253.09 454.582 253.23 453.132 254.21 452.322C255.19 451.512 256.64 451.652 257.45 452.642Z" fill="url(#paint65_linear_179_473)"/>
<path d="M231.05 445.062L231.26 444.492C223.47 441.632 216.88 436.052 210.51 430.652C206.09 426.902 201.51 423.032 196.52 420.022C183.13 411.972 167.16 410.342 151.72 408.762C138.85 407.452 125.55 406.092 113.67 401.052C91.3703 391.592 76.9603 370.852 63.0403 350.792C57.9903 343.522 52.7702 336.002 47.2502 329.132C42.5702 323.312 36.1303 316.002 27.8203 311.122C19.4203 306.202 10.0502 304.582 2.12024 306.672L2.28024 307.262C10.0602 305.202 19.2602 306.802 27.5202 311.642C35.7502 316.462 42.1403 323.722 46.7903 329.502C52.3003 336.352 57.5102 343.862 62.5502 351.122C76.5302 371.252 90.9803 392.062 113.45 401.592C125.42 406.672 138.77 408.032 151.68 409.342C167.05 410.912 182.95 412.532 196.22 420.512C201.17 423.492 205.73 427.352 210.13 431.082C216.53 436.542 223.16 442.162 231.05 445.062Z" fill="url(#paint66_linear_179_473)"/>
<path d="M230.31 446.892C231.51 447.302 232.82 446.662 233.23 445.462C233.64 444.262 233 442.952 231.8 442.542C230.6 442.132 229.29 442.772 228.88 443.972C228.47 445.172 229.11 446.482 230.31 446.892Z" fill="url(#paint67_linear_179_473)"/>
<path d="M258.21 436.812L258.53 436.292C248.65 430.232 239.49 422.742 230.64 415.502C225.5 411.302 220.19 406.952 214.78 402.932C186.32 381.732 152.77 367.492 117.76 361.732C114.07 361.122 110.27 360.592 106.59 360.082C91.1398 357.912 75.1598 355.682 61.9998 347.322C56.3898 343.762 51.4298 339.142 46.6198 334.682C42.9598 331.282 39.1798 327.762 35.1298 324.722C23.7598 316.182 11.3898 313.532 2.03979 317.602L2.27979 318.162C11.4298 314.172 23.5698 316.812 34.7598 325.212C38.7898 328.242 42.5598 331.742 46.2098 335.132C51.0298 339.612 56.0198 344.252 61.6698 347.842C74.9398 356.272 90.9898 358.512 106.51 360.692C110.18 361.202 113.98 361.742 117.66 362.342C152.58 368.082 186.04 382.282 214.42 403.422C219.81 407.442 225.12 411.782 230.25 415.982C239.12 423.232 248.29 430.732 258.21 436.812Z" fill="url(#paint68_linear_179_473)"/>
<path d="M257.07 438.402C258.15 439.072 259.57 438.752 260.24 437.672C260.91 436.592 260.59 435.172 259.51 434.502C258.43 433.832 257.01 434.152 256.34 435.232C255.67 436.312 256 437.732 257.07 438.402Z" fill="url(#paint69_linear_179_473)"/>
<path d="M337.669 380.292C348.779 380.292 360.129 378.742 371.239 375.602C395.729 368.682 419.179 354.682 440.949 333.982C444.119 330.962 447.299 327.772 450.379 324.692C462.429 312.602 474.879 300.092 490.709 294.112L490.489 293.542C474.549 299.572 462.039 312.122 449.949 324.262C446.879 327.342 443.699 330.532 440.539 333.542C418.839 354.172 395.479 368.132 371.079 375.022C343.539 382.802 314.519 380.792 291.449 369.502C275.119 361.512 261.239 348.912 247.829 336.732C232.509 322.822 216.669 308.432 197.169 300.972C172.649 291.592 143.019 294.512 119.859 308.602C116.469 310.662 113.159 312.982 109.949 315.222C104.319 319.152 98.5095 323.222 92.1295 326.002C74.8795 333.512 56.4295 331.152 36.8895 328.662C25.4295 327.202 13.5895 325.692 2.11948 326.402L2.15948 327.012C13.5595 326.292 25.3795 327.812 36.8095 329.272C55.5695 331.672 74.9695 334.142 92.3695 326.572C98.7995 323.772 104.639 319.692 110.289 315.732C113.489 313.502 116.789 311.182 120.169 309.132C143.169 295.142 172.589 292.232 196.939 301.552C216.329 308.972 232.129 323.312 247.409 337.192C260.859 349.402 274.759 362.032 291.169 370.062C305.059 376.832 321.089 380.292 337.669 380.292Z" fill="url(#paint70_linear_179_473)"/>
<path d="M491.31 296.042C492.5 295.592 493.1 294.272 492.65 293.082C492.2 291.892 490.88 291.292 489.69 291.742C488.5 292.192 487.9 293.512 488.35 294.702C488.79 295.882 490.12 296.492 491.31 296.042Z" fill="url(#paint71_linear_179_473)"/>
<path d="M19.7798 279.612C28.2698 279.612 36.6398 278.472 44.3198 276.212C58.7298 271.972 70.2798 264.002 77.7298 253.172C85.1998 242.312 88.3198 229.142 91.3398 216.402C91.8098 214.412 92.2798 212.422 92.7698 210.442C98.1298 188.682 105.78 167.402 115.51 147.222C120.62 136.612 127.14 124.432 136.74 114.522C154.59 96.0919 183.09 86.6319 212.98 89.2219L213.03 88.6119C182.96 86.0019 154.28 95.5319 136.3 114.092C126.64 124.062 120.09 136.302 114.96 146.952C105.21 167.182 97.5498 188.492 92.1698 210.292C91.6798 212.272 91.2098 214.262 90.7398 216.252C87.7298 228.942 84.6198 242.052 77.2198 252.822C69.8598 263.532 58.4198 271.412 44.1398 275.622C31.2398 279.422 16.3898 280.042 2.32977 277.372L2.21979 277.972C7.99979 279.062 13.9198 279.612 19.7798 279.612Z" fill="url(#paint72_linear_179_473)"/>
<path d="M212.7 91.2219C213.97 91.3219 215.08 90.3819 215.18 89.1219C215.28 87.8519 214.34 86.7419 213.08 86.6419C211.81 86.5419 210.7 87.4819 210.6 88.7419C210.5 90.0019 211.44 91.1219 212.7 91.2219Z" fill="url(#paint73_linear_179_473)"/>
<path d="M240.3 546.632L240.61 546.102C218.68 533.332 192.28 532.812 166.75 532.312C154.1 532.062 141.02 531.802 128.57 530.072C105.58 526.882 84.9199 518.482 68.8199 505.792C51.0399 491.782 38.7799 472.032 35.1899 451.622C34.1899 445.942 33.8099 440.072 33.4499 434.402C33.0899 428.802 32.7199 423.012 31.7499 417.382C28.9599 401.172 21.0199 385.842 9.39987 374.202C8.33987 373.142 7.32989 372.822 6.56989 373.302C6.22989 373.512 6.10988 373.892 6.24988 374.292C6.38988 374.722 6.83987 375.182 7.26987 375.182C7.27987 375.182 7.29989 375.182 7.31989 375.182C7.41989 375.172 7.76988 375.112 7.84988 374.622L7.24988 374.522C7.23988 374.572 7.22989 374.592 7.22989 374.592C7.18989 374.562 6.90986 374.342 6.82986 374.072C6.77986 373.912 6.84988 373.852 6.90988 373.812C7.59988 373.372 8.57989 374.232 8.97989 374.622C20.5099 386.172 28.3899 401.392 31.1599 417.472C32.1199 423.062 32.4999 428.842 32.8599 434.432C33.2299 440.122 33.5999 446.012 34.6099 451.722C38.2299 472.282 50.5599 492.162 68.4599 506.272C84.6499 519.032 105.41 527.472 128.51 530.682C141 532.412 154.1 532.672 166.76 532.922C192.19 533.422 218.51 533.942 240.3 546.632Z" fill="url(#paint74_linear_179_473)"/>
<path d="M239.18 548.312C240.27 548.952 241.68 548.592 242.33 547.502C242.97 546.412 242.61 545.002 241.52 544.352C240.43 543.712 239.02 544.072 238.37 545.162C237.72 546.252 238.09 547.662 239.18 548.312Z" fill="url(#paint75_linear_179_473)"/>
<path d="M140.99 643.882L141.23 643.322C117.3 633.262 96.8 613.022 83.5 586.332C72.23 563.722 65.93 536.792 64.24 504.032C63.97 498.792 63.81 493.422 63.66 488.232C63.12 469.782 62.56 450.712 56.78 432.962C47.55 404.652 25.88 382.042 6.75998 362.092L6.31998 362.512C25.4 382.412 47.02 404.972 56.2 433.152C61.96 450.812 62.51 469.842 63.05 488.252C63.2 493.442 63.36 498.812 63.63 504.062C65.33 536.912 71.65 563.912 82.96 586.612C96.31 613.422 116.92 633.762 140.99 643.882Z" fill="url(#paint76_linear_179_473)"/>
<path d="M140.11 645.642C141.28 646.142 142.63 645.592 143.13 644.432C143.63 643.262 143.08 641.912 141.92 641.412C140.75 640.912 139.4 641.462 138.9 642.622C138.4 643.792 138.94 645.142 140.11 645.642Z" fill="url(#paint77_linear_179_473)"/>
<path d="M44.0696 601.022C47.2896 577.392 40.7696 553.682 34.4696 530.762C29.5296 512.792 24.4196 494.202 23.9096 475.562C23.6396 465.752 24.6596 455.782 25.6396 446.152C26.7896 434.862 27.9796 423.192 27.1196 411.702C25.4096 388.912 15.9796 367.842 6.85962 347.462L6.29962 347.712C15.3996 368.042 24.8096 389.062 26.5096 411.742C27.3696 423.182 26.1796 434.832 25.0296 446.092C24.0496 455.752 23.0296 465.732 23.2996 475.582C23.8096 494.292 28.9296 512.912 33.8796 530.922C40.1696 553.782 46.6696 577.422 43.4696 600.932L44.0696 601.022Z" fill="url(#paint78_linear_179_473)"/>
<path d="M41.4798 600.552C41.3098 601.812 42.1898 602.972 43.4398 603.142C44.6998 603.312 45.8598 602.432 46.0298 601.182C46.1998 599.922 45.3198 598.762 44.0698 598.592C42.8198 598.412 41.6598 599.292 41.4798 600.552Z" fill="url(#paint79_linear_179_473)"/>
<path d="M368.05 535.102L368.59 534.822C358.09 514.322 342.93 495.522 324.74 480.442C306.54 465.352 285.24 453.942 263.17 447.442C240.19 440.682 215.83 438.752 192.27 436.882C169.06 435.042 145.06 433.142 122.42 426.622C80.5203 414.552 43.2503 385.552 20.1603 347.032C19.4903 345.902 18.7403 344.702 17.9503 343.422C13.3203 335.952 6.98034 325.712 6.97034 317.602C6.97034 310.302 11.2803 305.052 15.8603 299.492C17.2603 297.792 18.7003 296.042 19.9903 294.242C36.7203 270.862 45.4903 249.672 46.8103 229.472C48.1303 209.142 41.8103 189.252 35.7003 170.012C32.7503 160.712 29.6903 151.092 27.5303 141.532C19.4703 105.912 23.3203 67.9719 38.3703 34.7019C44.6103 20.9119 51.7303 10.3419 60.1503 2.41188L59.7303 1.96188C51.2503 9.95188 44.0803 20.5819 37.8103 34.4419C22.7103 67.8319 18.8403 105.912 26.9303 141.662C29.1003 151.252 32.1603 160.882 35.1203 170.192C41.2103 189.372 47.5103 209.212 46.2003 229.432C44.8903 249.512 36.1603 270.592 19.5003 293.882C18.2303 295.662 16.7903 297.412 15.4003 299.102C10.9603 304.502 6.37033 310.082 6.37033 317.602C6.38033 325.882 12.7703 336.202 17.4403 343.742C18.2303 345.012 18.9803 346.222 19.6503 347.342C42.8103 385.982 80.2103 415.092 122.26 427.202C144.96 433.742 169 435.642 192.24 437.492C215.77 439.362 240.1 441.282 263.02 448.032C307.57 461.132 346.84 493.682 368.05 535.102Z" fill="url(#paint80_linear_179_473)"/>
<path d="M61.46 3.96188C62.38 3.08188 62.41 1.63188 61.54 0.711884C60.66 -0.208116 59.21 -0.238116 58.29 0.631884C57.37 1.51188 57.34 2.96188 58.21 3.88188C59.08 4.80188 60.54 4.84188 61.46 3.96188Z" fill="url(#paint81_linear_179_473)"/>
<path d="M370.27 533.802C370.86 534.922 370.44 536.312 369.31 536.912C368.19 537.502 366.8 537.082 366.2 535.952C365.61 534.832 366.03 533.442 367.16 532.842C368.28 532.252 369.67 532.682 370.27 533.802Z" fill="url(#paint82_linear_179_473)"/>
<path d="M53.2799 657.562C54.8799 643.792 57.8399 629.912 60.6999 616.492C61.3299 613.562 61.9499 610.642 62.5599 607.722C67.2199 585.372 71.3899 561.682 75.6799 533.162C79.2799 509.212 81.8699 485.962 74.0599 464.792C69.5299 452.512 61.6798 441.672 54.0798 431.182L52.7599 429.352C30.0199 397.912 8.73986 363.612 6.92986 325.832L6.31987 325.862C8.12987 363.802 29.4699 398.202 52.2599 429.712L53.5899 431.542C61.1599 441.992 68.9899 452.792 73.4899 465.002C81.2499 486.042 78.6698 509.202 75.0798 533.072C70.7898 561.572 66.6199 585.262 61.9599 607.592C61.3499 610.512 60.7299 613.442 60.0999 616.362C57.2299 629.802 54.2699 643.692 52.6699 657.492L53.2799 657.562Z" fill="url(#paint83_linear_179_473)"/>
<path d="M50.7701 657.112C50.6001 658.372 51.4801 659.532 52.7401 659.702C54.0001 659.872 55.1601 658.992 55.3301 657.732C55.5001 656.472 54.6201 655.312 53.3601 655.142C52.0901 654.972 50.9301 655.852 50.7701 657.112Z" fill="url(#paint84_linear_179_473)"/>
<path d="M16.0492 288.254C11.6335 284.033 11.475 277.033 15.6952 272.617C19.9154 268.201 26.9162 268.043 31.3319 272.263C35.7475 276.483 35.906 283.484 31.6858 287.9C27.4656 292.315 20.4648 292.474 16.0492 288.254Z" fill="#00FFFF"/>
<path d="M42.7397 436.972C42.7497 432.132 38.8397 428.192 33.9997 428.182C29.1597 428.172 25.2197 432.082 25.2097 436.922C25.1997 441.762 29.1097 445.702 33.9497 445.712C38.7897 445.722 42.7197 441.812 42.7397 436.972Z" fill="#00FFFF"/>
<path d="M108.26 326.462C110.43 324.312 110.44 320.802 108.28 318.642C106.13 316.472 102.62 316.462 100.46 318.622C98.2898 320.772 98.2798 324.282 100.44 326.442C102.59 328.612 106.09 328.622 108.26 326.462Z" fill="#00FFFF"/>
<path d="M324.7 419.492C320.25 419.482 316.63 423.082 316.62 427.532C316.61 431.982 320.21 435.602 324.66 435.612C329.11 435.622 332.73 432.022 332.74 427.572C332.75 423.132 329.15 419.512 324.7 419.492Z" fill="#FF00FF"/>
<defs>
<linearGradient id="paint0_linear_179_473" x1="1.47644" y1="200.259" x2="0.631974" y2="501.852" gradientUnits="userSpaceOnUse">
<stop offset="0.00436282" stop-color="white"/>
<stop offset="1"/>
</linearGradient>
<linearGradient id="paint1_linear_179_473" x1="1.47644" y1="200.259" x2="0.631974" y2="501.852" gradientUnits="userSpaceOnUse">
<stop offset="0.00436282" stop-color="#8F45ED"/>
<stop offset="1" stop-color="#3DDEED"/>
</linearGradient>
<linearGradient id="paint2_linear_179_473" x1="180.665" y1="341.484" x2="180.691" y2="332.337" gradientUnits="userSpaceOnUse">
<stop offset="0.00436282" stop-color="#8F45ED"/>
<stop offset="1" stop-color="#3DDEED"/>
</linearGradient>
<linearGradient id="paint3_linear_179_473" x1="359.114" y1="341.989" x2="359.139" y2="332.835" gradientUnits="userSpaceOnUse">
<stop offset="0.00436282" stop-color="#8F45ED"/>
<stop offset="1" stop-color="#3DDEED"/>
</linearGradient>
<linearGradient id="paint4_linear_179_473" x1="184.74" y1="333.508" x2="184.839" y2="298.741" gradientUnits="userSpaceOnUse">
<stop offset="0.00436282" stop-color="#8F45ED"/>
<stop offset="1" stop-color="#3DDEED"/>
</linearGradient>
<linearGradient id="paint5_linear_179_473" x1="367.173" y1="334.024" x2="367.271" y2="299.257" gradientUnits="userSpaceOnUse">
<stop offset="0.00436282" stop-color="#8F45ED"/>
<stop offset="1" stop-color="#3DDEED"/>
</linearGradient>
<linearGradient id="paint6_linear_179_473" x1="194.899" y1="360.729" x2="195.2" y2="254.195" gradientUnits="userSpaceOnUse">
<stop offset="0.00436282" stop-color="#8F45ED"/>
<stop offset="1" stop-color="#3DDEED"/>
</linearGradient>
<linearGradient id="paint7_linear_179_473" x1="387.507" y1="361.274" x2="387.808" y2="254.74" gradientUnits="userSpaceOnUse">
<stop offset="0.00436282" stop-color="#8F45ED"/>
<stop offset="1" stop-color="#3DDEED"/>
</linearGradient>
<linearGradient id="paint8_linear_179_473" x1="188.231" y1="342.16" x2="188.469" y2="257.937" gradientUnits="userSpaceOnUse">
<stop offset="0.00436282" stop-color="#8F45ED"/>
<stop offset="1" stop-color="#3DDEED"/>
</linearGradient>
<linearGradient id="paint9_linear_179_473" x1="337.754" y1="342.588" x2="337.992" y2="258.36" gradientUnits="userSpaceOnUse">
<stop offset="0.00436282" stop-color="#8F45ED"/>
<stop offset="1" stop-color="#3DDEED"/>
</linearGradient>
<linearGradient id="paint10_linear_179_473" x1="375.251" y1="342.694" x2="375.489" y2="258.466" gradientUnits="userSpaceOnUse">
<stop offset="0.00436282" stop-color="#8F45ED"/>
<stop offset="1" stop-color="#3DDEED"/>
</linearGradient>
<linearGradient id="paint11_linear_179_473" x1="173.07" y1="394.12" x2="173.174" y2="357.558" gradientUnits="userSpaceOnUse">
<stop offset="0.00436282" stop-color="#8F45ED"/>
<stop offset="1" stop-color="#3DDEED"/>
</linearGradient>
<linearGradient id="paint12_linear_179_473" x1="343.916" y1="394.604" x2="344.019" y2="358.039" gradientUnits="userSpaceOnUse">
<stop offset="0.00436282" stop-color="#8F45ED"/>
<stop offset="1" stop-color="#3DDEED"/>
</linearGradient>
<linearGradient id="paint13_linear_179_473" x1="137.605" y1="308.059" x2="137.752" y2="256.045" gradientUnits="userSpaceOnUse">
<stop offset="0.00436282" stop-color="#8F45ED"/>
<stop offset="1" stop-color="#3DDEED"/>
</linearGradient>
<linearGradient id="paint14_linear_179_473" x1="272.694" y1="308.441" x2="272.841" y2="256.426" gradientUnits="userSpaceOnUse">
<stop offset="0.00436282" stop-color="#8F45ED"/>
<stop offset="1" stop-color="#3DDEED"/>
</linearGradient>
<linearGradient id="paint15_linear_179_473" x1="211.715" y1="393.385" x2="211.87" y2="338.756" gradientUnits="userSpaceOnUse">
<stop offset="0.00436282" stop-color="#8F45ED"/>
<stop offset="1" stop-color="#3DDEED"/>
</linearGradient>
<linearGradient id="paint16_linear_179_473" x1="421.343" y1="393.975" x2="421.497" y2="339.328" gradientUnits="userSpaceOnUse">
<stop offset="0.00436282" stop-color="#8F45ED"/>
<stop offset="1" stop-color="#3DDEED"/>
</linearGradient>
<linearGradient id="paint17_linear_179_473" x1="226.144" y1="371.15" x2="226.205" y2="349.458" gradientUnits="userSpaceOnUse">
<stop offset="0.00436282" stop-color="#8F45ED"/>
<stop offset="1" stop-color="#3DDEED"/>
</linearGradient>
<linearGradient id="paint18_linear_179_473" x1="450.088" y1="371.789" x2="450.15" y2="350.091" gradientUnits="userSpaceOnUse">
<stop offset="0.00436282" stop-color="#8F45ED"/>
<stop offset="1" stop-color="#3DDEED"/>
</linearGradient>
<linearGradient id="paint19_linear_179_473" x1="162.332" y1="402.733" x2="162.421" y2="371.238" gradientUnits="userSpaceOnUse">
<stop offset="0.00436282" stop-color="#8F45ED"/>
<stop offset="1" stop-color="#3DDEED"/>
</linearGradient>
<linearGradient id="paint20_linear_179_473" x1="322.533" y1="403.186" x2="322.622" y2="371.707" gradientUnits="userSpaceOnUse">
<stop offset="0.00436282" stop-color="#8F45ED"/>
<stop offset="1" stop-color="#3DDEED"/>
</linearGradient>
<linearGradient id="paint21_linear_179_473" x1="168.117" y1="315.141" x2="168.334" y2="238.361" gradientUnits="userSpaceOnUse">
<stop offset="0.00436282" stop-color="#8F45ED"/>
<stop offset="1" stop-color="#3DDEED"/>
</linearGradient>
<linearGradient id="paint22_linear_179_473" x1="333.899" y1="315.612" x2="334.116" y2="238.829" gradientUnits="userSpaceOnUse">
<stop offset="0.00436282" stop-color="#8F45ED"/>
<stop offset="1" stop-color="#3DDEED"/>
</linearGradient>
<linearGradient id="paint23_linear_179_473" x1="129.894" y1="279.025" x2="130.008" y2="238.593" gradientUnits="userSpaceOnUse">
<stop offset="0.00436282" stop-color="#8F45ED"/>
<stop offset="1" stop-color="#3DDEED"/>
</linearGradient>
<linearGradient id="paint24_linear_179_473" x1="257.228" y1="279.385" x2="257.342" y2="238.953" gradientUnits="userSpaceOnUse">
<stop offset="0.00436282" stop-color="#8F45ED"/>
<stop offset="1" stop-color="#3DDEED"/>
</linearGradient>
<linearGradient id="paint25_linear_179_473" x1="124.555" y1="277.971" x2="124.734" y2="214.631" gradientUnits="userSpaceOnUse">
<stop offset="0.00436282" stop-color="#8F45ED"/>
<stop offset="1" stop-color="#3DDEED"/>
</linearGradient>
<linearGradient id="paint26_linear_179_473" x1="246.648" y1="278.315" x2="246.827" y2="214.976" gradientUnits="userSpaceOnUse">
<stop offset="0.00436282" stop-color="#8F45ED"/>
<stop offset="1" stop-color="#3DDEED"/>
</linearGradient>
<linearGradient id="paint27_linear_179_473" x1="100.312" y1="292.342" x2="100.589" y2="194.386" gradientUnits="userSpaceOnUse">
<stop offset="0.00436282" stop-color="#8F45ED"/>
<stop offset="1" stop-color="#3DDEED"/>
</linearGradient>
<linearGradient id="paint28_linear_179_473" x1="196.109" y1="292.613" x2="196.386" y2="194.657" gradientUnits="userSpaceOnUse">
<stop offset="0.00436282" stop-color="#8F45ED"/>
<stop offset="1" stop-color="#3DDEED"/>
</linearGradient>
<linearGradient id="paint29_linear_179_473" x1="141.833" y1="401.373" x2="141.914" y2="372.485" gradientUnits="userSpaceOnUse">
<stop offset="0.00436282" stop-color="#8F45ED"/>
<stop offset="1" stop-color="#3DDEED"/>
</linearGradient>
<linearGradient id="paint30_linear_179_473" x1="281.716" y1="401.769" x2="281.798" y2="372.875" gradientUnits="userSpaceOnUse">
<stop offset="0.00436282" stop-color="#8F45ED"/>
<stop offset="1" stop-color="#3DDEED"/>
</linearGradient>
<linearGradient id="paint31_linear_179_473" x1="232.015" y1="373.338" x2="232.402" y2="236.282" gradientUnits="userSpaceOnUse">
<stop offset="0.00436282" stop-color="#8F45ED"/>
<stop offset="1" stop-color="#3DDEED"/>
</linearGradient>
<linearGradient id="paint32_linear_179_473" x1="461.903" y1="373.963" x2="462.291" y2="236.932" gradientUnits="userSpaceOnUse">
<stop offset="0.00436282" stop-color="#8F45ED"/>
<stop offset="1" stop-color="#3DDEED"/>
</linearGradient>
<linearGradient id="paint33_linear_179_473" x1="208.458" y1="393.856" x2="208.607" y2="341.311" gradientUnits="userSpaceOnUse">
<stop offset="0.00436282" stop-color="#8F45ED"/>
<stop offset="1" stop-color="#3DDEED"/>
</linearGradient>
<linearGradient id="paint34_linear_179_473" x1="414.911" y1="394.44" x2="415.06" y2="341.868" gradientUnits="userSpaceOnUse">
<stop offset="0.00436282" stop-color="#8F45ED"/>
<stop offset="1" stop-color="#3DDEED"/>
</linearGradient>
<linearGradient id="paint35_linear_179_473" x1="124.203" y1="406.857" x2="124.462" y2="315.415" gradientUnits="userSpaceOnUse">
<stop offset="0.00436282" stop-color="#8F45ED"/>
<stop offset="1" stop-color="#3DDEED"/>
</linearGradient>
<linearGradient id="paint36_linear_179_473" x1="246.447" y1="407.203" x2="246.706" y2="315.769" gradientUnits="userSpaceOnUse">
<stop offset="0.00436282" stop-color="#8F45ED"/>
<stop offset="1" stop-color="#3DDEED"/>
</linearGradient>
<linearGradient id="paint37_linear_179_473" x1="113.026" y1="412.994" x2="113.207" y2="348.995" gradientUnits="userSpaceOnUse">
<stop offset="0.00436282" stop-color="#8F45ED"/>
<stop offset="1" stop-color="#3DDEED"/>
</linearGradient>
<linearGradient id="paint38_linear_179_473" x1="224.123" y1="413.308" x2="224.304" y2="349.309" gradientUnits="userSpaceOnUse">
<stop offset="0.00436282" stop-color="#8F45ED"/>
<stop offset="1" stop-color="#3DDEED"/>
</linearGradient>
<linearGradient id="paint39_linear_179_473" x1="134.467" y1="409.18" x2="134.551" y2="379.464" gradientUnits="userSpaceOnUse">
<stop offset="0.00436282" stop-color="#8F45ED"/>
<stop offset="1" stop-color="#3DDEED"/>
</linearGradient>
<linearGradient id="paint40_linear_179_473" x1="266.761" y1="409.554" x2="266.845" y2="379.839" gradientUnits="userSpaceOnUse">
<stop offset="0.00436282" stop-color="#8F45ED"/>
<stop offset="1" stop-color="#3DDEED"/>
</linearGradient>
<linearGradient id="paint41_linear_179_473" x1="122.494" y1="294.978" x2="122.778" y2="194.352" gradientUnits="userSpaceOnUse">
<stop offset="0.00436282" stop-color="#8F45ED"/>
<stop offset="1" stop-color="#3DDEED"/>
</linearGradient>
<linearGradient id="paint42_linear_179_473" x1="238.413" y1="295.305" x2="238.698" y2="194.679" gradientUnits="userSpaceOnUse">
<stop offset="0.00436282" stop-color="#8F45ED"/>
<stop offset="1" stop-color="#3DDEED"/>
</linearGradient>
<linearGradient id="paint43_linear_179_473" x1="89.383" y1="283.15" x2="89.7102" y2="167.441" gradientUnits="userSpaceOnUse">
<stop offset="0.00436282" stop-color="#8F45ED"/>
<stop offset="1" stop-color="#3DDEED"/>
</linearGradient>
<linearGradient id="paint44_linear_179_473" x1="176.36" y1="283.397" x2="176.687" y2="167.686" gradientUnits="userSpaceOnUse">
<stop offset="0.00436282" stop-color="#8F45ED"/>
<stop offset="1" stop-color="#3DDEED"/>
</linearGradient>
<linearGradient id="paint45_linear_179_473" x1="249.027" y1="369.202" x2="249.335" y2="260.386" gradientUnits="userSpaceOnUse">
<stop offset="0.00436282" stop-color="#8F45ED"/>
<stop offset="1" stop-color="#3DDEED"/>
</linearGradient>
<linearGradient id="paint46_linear_179_473" x1="495.895" y1="369.899" x2="496.202" y2="261.084" gradientUnits="userSpaceOnUse">
<stop offset="0.00436282" stop-color="#8F45ED"/>
<stop offset="1" stop-color="#3DDEED"/>
</linearGradient>
<linearGradient id="paint47_linear_179_473" x1="155.486" y1="418.499" x2="155.873" y2="281.405" gradientUnits="userSpaceOnUse">
<stop offset="0.00436282" stop-color="#8F45ED"/>
<stop offset="1" stop-color="#3DDEED"/>
</linearGradient>
<linearGradient id="paint48_linear_179_473" x1="309.051" y1="418.933" x2="309.438" y2="281.87" gradientUnits="userSpaceOnUse">
<stop offset="0.00436282" stop-color="#8F45ED"/>
<stop offset="1" stop-color="#3DDEED"/>
</linearGradient>
<linearGradient id="paint49_linear_179_473" x1="175.671" y1="403.299" x2="175.944" y2="306.977" gradientUnits="userSpaceOnUse">
<stop offset="0.00436282" stop-color="#8F45ED"/>
<stop offset="1" stop-color="#3DDEED"/>
</linearGradient>
<linearGradient id="paint50_linear_179_473" x1="349.371" y1="403.814" x2="349.644" y2="307.449" gradientUnits="userSpaceOnUse">
<stop offset="0.00436282" stop-color="#8F45ED"/>
<stop offset="1" stop-color="#3DDEED"/>
</linearGradient>
<linearGradient id="paint51_linear_179_473" x1="191.183" y1="407.314" x2="191.364" y2="343.377" gradientUnits="userSpaceOnUse">
<stop offset="0.00436282" stop-color="#8F45ED"/>
<stop offset="1" stop-color="#3DDEED"/>
</linearGradient>
<linearGradient id="paint52_linear_179_473" x1="380.572" y1="407.844" x2="380.753" y2="343.912" gradientUnits="userSpaceOnUse">
<stop offset="0.00436282" stop-color="#8F45ED"/>
<stop offset="1" stop-color="#3DDEED"/>
</linearGradient>
<linearGradient id="paint53_linear_179_473" x1="197.74" y1="421.626" x2="198.005" y2="327.824" gradientUnits="userSpaceOnUse">
<stop offset="0.00436282" stop-color="#8F45ED"/>
<stop offset="1" stop-color="#3DDEED"/>
</linearGradient>
<linearGradient id="paint54_linear_179_473" x1="393.464" y1="422.191" x2="393.73" y2="328.348" gradientUnits="userSpaceOnUse">
<stop offset="0.00436282" stop-color="#8F45ED"/>
<stop offset="1" stop-color="#3DDEED"/>
</linearGradient>
<linearGradient id="paint55_linear_179_473" x1="101.443" y1="425.359" x2="101.596" y2="371.233" gradientUnits="userSpaceOnUse">
<stop offset="0.00436282" stop-color="#8F45ED"/>
<stop offset="1" stop-color="#3DDEED"/>
</linearGradient>
<linearGradient id="paint56_linear_179_473" x1="200.955" y1="425.64" x2="201.108" y2="371.514" gradientUnits="userSpaceOnUse">
<stop offset="0.00436282" stop-color="#8F45ED"/>
<stop offset="1" stop-color="#3DDEED"/>
</linearGradient>
<linearGradient id="paint57_linear_179_473" x1="91.3883" y1="436.191" x2="91.599" y2="361.689" gradientUnits="userSpaceOnUse">
<stop offset="0.00436282" stop-color="#8F45ED"/>
<stop offset="1" stop-color="#3DDEED"/>
</linearGradient>
<linearGradient id="paint58_linear_179_473" x1="180.661" y1="436.443" x2="180.872" y2="361.942" gradientUnits="userSpaceOnUse">
<stop offset="0.00436282" stop-color="#8F45ED"/>
<stop offset="1" stop-color="#3DDEED"/>
</linearGradient>
<linearGradient id="paint59_linear_179_473" x1="73.6091" y1="437.048" x2="73.8704" y2="344.638" gradientUnits="userSpaceOnUse">
<stop offset="0.00436282" stop-color="#8F45ED"/>
<stop offset="1" stop-color="#3DDEED"/>
</linearGradient>
<linearGradient id="paint60_linear_179_473" x1="145.246" y1="437.25" x2="145.507" y2="344.84" gradientUnits="userSpaceOnUse">
<stop offset="0.00436282" stop-color="#8F45ED"/>
<stop offset="1" stop-color="#3DDEED"/>
</linearGradient>
<linearGradient id="paint61_linear_179_473" x1="40.6428" y1="432.806" x2="41.0173" y2="300.363" gradientUnits="userSpaceOnUse">
<stop offset="0.00436282" stop-color="#8F45ED"/>
<stop offset="1" stop-color="#3DDEED"/>
</linearGradient>
<linearGradient id="paint62_linear_179_473" x1="79.4185" y1="432.916" x2="79.793" y2="300.471" gradientUnits="userSpaceOnUse">
<stop offset="0.00436282" stop-color="#8F45ED"/>
<stop offset="1" stop-color="#3DDEED"/>
</linearGradient>
<linearGradient id="paint63_linear_179_473" x1="128.589" y1="455.705" x2="129.046" y2="294.369" gradientUnits="userSpaceOnUse">
<stop offset="0.00436282" stop-color="#8F45ED"/>
<stop offset="1" stop-color="#3DDEED"/>
</linearGradient>
<linearGradient id="paint64_linear_179_473" x1="217.963" y1="455.958" x2="218.42" y2="294.621" gradientUnits="userSpaceOnUse">
<stop offset="0.00436282" stop-color="#8F45ED"/>
<stop offset="1" stop-color="#3DDEED"/>
</linearGradient>
<linearGradient id="paint65_linear_179_473" x1="255.661" y1="456.063" x2="256.117" y2="294.725" gradientUnits="userSpaceOnUse">
<stop offset="0.00436282" stop-color="#8F45ED"/>
<stop offset="1" stop-color="#3DDEED"/>
</linearGradient>
<linearGradient id="paint66_linear_179_473" x1="116.49" y1="445.426" x2="116.884" y2="306.1" gradientUnits="userSpaceOnUse">
<stop offset="0.00436282" stop-color="#8F45ED"/>
<stop offset="1" stop-color="#3DDEED"/>
</linearGradient>
<linearGradient id="paint67_linear_179_473" x1="231.049" y1="445.751" x2="231.443" y2="306.413" gradientUnits="userSpaceOnUse">
<stop offset="0.00436282" stop-color="#8F45ED"/>
<stop offset="1" stop-color="#3DDEED"/>
</linearGradient>
<linearGradient id="paint68_linear_179_473" x1="130.114" y1="437.572" x2="130.457" y2="316.06" gradientUnits="userSpaceOnUse">
<stop offset="0.00436282" stop-color="#8F45ED"/>
<stop offset="1" stop-color="#3DDEED"/>
</linearGradient>
<linearGradient id="paint69_linear_179_473" x1="258.29" y1="437.935" x2="258.634" y2="316.393" gradientUnits="userSpaceOnUse">
<stop offset="0.00436282" stop-color="#8F45ED"/>
<stop offset="1" stop-color="#3DDEED"/>
</linearGradient>
<linearGradient id="paint70_linear_179_473" x1="246.211" y1="380.029" x2="246.46" y2="292.095" gradientUnits="userSpaceOnUse">
<stop offset="0.00436282" stop-color="#8F45ED"/>
<stop offset="1" stop-color="#3DDEED"/>
</linearGradient>
<linearGradient id="paint71_linear_179_473" x1="490.252" y1="380.756" x2="490.501" y2="292.785" gradientUnits="userSpaceOnUse">
<stop offset="0.00436282" stop-color="#8F45ED"/>
<stop offset="1" stop-color="#3DDEED"/>
</linearGradient>
<linearGradient id="paint72_linear_179_473" x1="107.352" y1="279.857" x2="107.895" y2="87.9084" gradientUnits="userSpaceOnUse">
<stop offset="0.00436282" stop-color="#8F45ED"/>
<stop offset="1" stop-color="#3DDEED"/>
</linearGradient>
<linearGradient id="paint73_linear_179_473" x1="212.353" y1="280.166" x2="212.895" y2="88.2092" gradientUnits="userSpaceOnUse">
<stop offset="0.00436282" stop-color="#8F45ED"/>
<stop offset="1" stop-color="#3DDEED"/>
</linearGradient>
<linearGradient id="paint74_linear_179_473" x1="123.647" y1="373.407" x2="123.155" y2="547.418" gradientUnits="userSpaceOnUse">
<stop offset="0.00436282" stop-color="#8F45ED"/>
<stop offset="1" stop-color="#3DDEED"/>
</linearGradient>
<linearGradient id="paint75_linear_179_473" x1="240.838" y1="373.738" x2="240.346" y2="547.748" gradientUnits="userSpaceOnUse">
<stop offset="0.00436282" stop-color="#8F45ED"/>
<stop offset="1" stop-color="#3DDEED"/>
</linearGradient>
<linearGradient id="paint76_linear_179_473" x1="74.1644" y1="362.282" x2="73.3664" y2="644.512" gradientUnits="userSpaceOnUse">
<stop offset="0.00436282" stop-color="#8F45ED"/>
<stop offset="1" stop-color="#3DDEED"/>
</linearGradient>
<linearGradient id="paint77_linear_179_473" x1="141.807" y1="362.471" x2="141.01" y2="644.704" gradientUnits="userSpaceOnUse">
<stop offset="0.00436282" stop-color="#8F45ED"/>
<stop offset="1" stop-color="#3DDEED"/>
</linearGradient>
<linearGradient id="paint78_linear_179_473" x1="25.9462" y1="347.525" x2="25.2235" y2="603.142" gradientUnits="userSpaceOnUse">
<stop offset="0.00436282" stop-color="#8F45ED"/>
<stop offset="1" stop-color="#3DDEED"/>
</linearGradient>
<linearGradient id="paint79_linear_179_473" x1="44.4761" y1="347.578" x2="43.7533" y2="603.195" gradientUnits="userSpaceOnUse">
<stop offset="0.00436282" stop-color="#8F45ED"/>
<stop offset="1" stop-color="#3DDEED"/>
</linearGradient>
<linearGradient id="paint80_linear_179_473" x1="188.678" y1="0.846084" x2="187.164" y2="536.537" gradientUnits="userSpaceOnUse">
<stop offset="0.00436282" stop-color="#8F45ED"/>
<stop offset="1" stop-color="#3DDEED"/>
</linearGradient>
<linearGradient id="paint81_linear_179_473" x1="59.8784" y1="0.481984" x2="58.3637" y2="536.169" gradientUnits="userSpaceOnUse">
<stop offset="0.00436282" stop-color="#8F45ED"/>
<stop offset="1" stop-color="#3DDEED"/>
</linearGradient>
<linearGradient id="paint82_linear_179_473" x1="369.743" y1="1.36726" x2="368.228" y2="537.048" gradientUnits="userSpaceOnUse">
<stop offset="0.00436282" stop-color="#8F45ED"/>
<stop offset="1" stop-color="#3DDEED"/>
</linearGradient>
<linearGradient id="paint83_linear_179_473" x1="42.9866" y1="325.927" x2="42.0428" y2="659.699" gradientUnits="userSpaceOnUse">
<stop offset="0.00436282" stop-color="#8F45ED"/>
<stop offset="1" stop-color="#3DDEED"/>
</linearGradient>
<linearGradient id="paint84_linear_179_473" x1="53.9818" y1="325.957" x2="53.0381" y2="659.73" gradientUnits="userSpaceOnUse">
<stop offset="0.00436282" stop-color="#8F45ED"/>
<stop offset="1" stop-color="#3DDEED"/>
</linearGradient>
</defs>
</svg>
