<svg width="473" height="457" viewBox="0 0 473 457" fill="none" xmlns="http://www.w3.org/2000/svg">
<path d="M289.526 242.31C309.03 242.31 328.714 241.061 347.808 239.841C364.736 238.762 382.242 237.653 399.479 237.413C423.567 237.093 448.015 238.472 471.653 239.811L471.683 239.232C448.035 237.892 423.577 236.513 399.469 236.833C382.222 237.063 364.706 238.182 347.768 239.262C326.926 240.591 305.375 241.96 284.143 241.7C263.651 241.45 242.838 239.661 222.715 237.932C193.085 235.394 162.456 232.765 132.346 234.984L132.386 235.564C162.446 233.345 193.055 235.974 222.665 238.512C242.798 240.241 263.631 242.03 284.133 242.28C285.931 242.3 287.728 242.31 289.526 242.31Z" fill="url(#paint0_linear_179_231)"/>
<path d="M132.335 233.105C131.127 233.185 130.218 234.225 130.298 235.424C130.378 236.633 131.416 237.543 132.615 237.463C133.813 237.383 134.732 236.343 134.652 235.144C134.572 233.945 133.543 233.035 132.335 233.105Z" fill="url(#paint1_linear_179_231)"/>
<path d="M288.036 234.725C302.577 234.725 317.467 234.315 332.846 233.806C378.915 232.267 425.613 230.068 471.641 227.289L471.601 226.71C425.573 229.488 378.875 231.687 332.816 233.226C284.97 234.825 241.888 235.385 199.165 225.88C179.661 221.543 160.416 215.046 141.801 208.76L124.704 202.993L124.514 203.543L141.611 209.31C160.236 215.596 179.501 222.102 199.035 226.45C228.086 232.906 257.287 234.725 288.036 234.725Z" fill="url(#paint2_linear_179_231)"/>
<path d="M125.413 201.224C124.275 200.834 123.026 201.454 122.647 202.593C122.257 203.733 122.877 204.982 124.015 205.362C125.154 205.752 126.402 205.132 126.781 203.993C127.171 202.853 126.552 201.614 125.413 201.224Z" fill="url(#paint3_linear_179_231)"/>
<path d="M262.98 260.681C290.993 260.681 319.315 258.333 346.778 256.054C387.774 252.646 430.167 249.128 471.692 253.445L471.751 252.866C430.177 248.538 387.754 252.066 346.738 255.474C316.658 257.973 285.56 260.551 254.971 260.032C212.258 259.312 192.883 250.687 180.78 243.251C162.704 232.147 149.541 214.807 136.798 198.037C130.067 189.182 123.117 180.017 115.497 171.832C112.511 168.633 109.355 165.505 106.309 162.477L105.31 161.487L104.901 161.897L105.899 162.887C108.945 165.905 112.101 169.033 115.077 172.231C122.687 180.397 129.628 189.552 136.349 198.397C149.122 215.207 162.324 232.597 180.49 243.751C203.659 257.983 232.461 260.242 254.981 260.621C257.627 260.661 260.303 260.681 262.98 260.681Z" fill="url(#paint4_linear_179_231)"/>
<path d="M106.719 160.238C105.87 159.379 104.492 159.369 103.633 160.218C102.774 161.068 102.764 162.447 103.613 163.306C104.462 164.166 105.84 164.176 106.699 163.326C107.558 162.487 107.568 161.098 106.719 160.238Z" fill="url(#paint5_linear_179_231)"/>
<path d="M350.493 242.701C362.377 242.701 374.242 242.421 386.066 241.762C394.544 241.282 403.153 240.592 411.482 239.923C431.206 238.344 451.588 236.705 471.652 237.764L472.83 237.824L471.821 237.224C459.897 230.128 446.655 226.43 432.454 226.26C410.413 225.981 388.063 227.65 366.442 229.249C354.927 230.108 343.023 230.988 331.309 231.567C302.927 232.977 265.866 233.237 231.023 222.643C196.329 212.099 168.506 191.9 152.667 165.755L152.168 166.055C168.077 192.32 196.029 212.608 230.853 223.192C265.786 233.806 302.897 233.556 331.339 232.147C343.063 231.567 354.967 230.678 366.482 229.828C388.083 228.229 410.423 226.56 432.444 226.84C446.136 227.01 458.939 230.468 470.503 237.124C450.789 236.185 430.796 237.794 411.452 239.343C403.123 240.013 394.515 240.702 386.046 241.182C346.429 243.421 306.162 241.232 267.214 239.113C250.157 238.184 232.511 237.224 215.663 232.937C181.728 224.302 149.451 202.114 117.005 165.115L116.565 165.495C149.092 202.584 181.459 224.821 215.523 233.496C232.431 237.804 250.097 238.763 267.184 239.693C294.518 241.172 322.521 242.701 350.493 242.701Z" fill="url(#paint6_linear_179_231)"/>
<path d="M154.355 164.815C153.715 163.785 152.367 163.475 151.349 164.105C150.32 164.745 150.01 166.094 150.64 167.113C151.279 168.143 152.627 168.453 153.646 167.823C154.664 167.193 154.984 165.834 154.355 164.815Z" fill="url(#paint7_linear_179_231)"/>
<path d="M115.247 166.824C114.438 165.925 114.508 164.545 115.397 163.736C116.296 162.926 117.674 162.996 118.483 163.886C119.292 164.775 119.222 166.164 118.333 166.974C117.444 167.794 116.056 167.724 115.247 166.824Z" fill="url(#paint8_linear_179_231)"/>
<path d="M147.075 291.713C160.007 282.138 171.822 273.813 185.404 268.796C196.079 264.858 207.464 263.209 217.191 262.12C240.93 259.461 265.207 259.121 286.639 258.821C348.047 257.962 410.334 257.562 471.742 257.652V257.072C410.324 256.992 348.047 257.392 286.629 258.242C265.187 258.542 240.89 258.881 217.131 261.54C207.364 262.629 195.94 264.288 185.204 268.246C171.542 273.283 159.698 281.639 146.725 291.233L147.075 291.713Z" fill="url(#paint9_linear_179_231)"/>
<path d="M145.707 289.655C144.728 290.364 144.518 291.733 145.227 292.713C145.936 293.692 147.305 293.902 148.283 293.193C149.262 292.483 149.472 291.114 148.763 290.134C148.044 289.155 146.675 288.945 145.707 289.655Z" fill="url(#paint10_linear_179_231)"/>
<path d="M353.459 210.398C375.55 210.398 397.92 208.789 419.571 207.22C436.599 205.991 454.195 204.722 471.542 204.252L471.522 203.672C454.165 204.152 436.559 205.421 419.531 206.65C397.421 208.24 374.541 209.919 352.031 209.819C304.665 209.669 266.865 201.423 236.465 184.633C228.966 180.485 218.539 173.789 214.615 163.445L214.075 163.655C218.07 174.169 228.606 180.955 236.186 185.143C266.665 201.983 304.565 210.248 352.031 210.408C352.501 210.398 352.98 210.398 353.459 210.398Z" fill="url(#paint11_linear_179_231)"/>
<path d="M216.452 162.946C216.062 161.807 214.824 161.187 213.685 161.577C212.547 161.967 211.928 163.206 212.317 164.345C212.707 165.485 213.945 166.104 215.084 165.714C216.232 165.335 216.841 164.095 216.452 162.946Z" fill="url(#paint12_linear_179_231)"/>
<path d="M77.3281 292.412C89.8015 292.412 101.426 284.906 112.721 277.62C114.648 276.381 116.636 275.092 118.573 273.892C137.458 262.139 160.268 253.694 188.33 248.087C241.809 237.393 297.415 239.981 351.173 242.49C390.77 244.339 431.725 246.248 471.702 242.87L471.652 242.29C431.715 245.658 390.78 243.749 351.203 241.91C297.405 239.402 241.769 236.803 188.21 247.517C160.078 253.144 137.198 261.609 118.264 273.403C116.326 274.612 114.329 275.891 112.401 277.14C99.9879 285.146 87.155 293.421 73.3534 291.572L73.2736 292.152C74.6418 292.322 75.9899 292.412 77.3281 292.412Z" fill="url(#paint13_linear_179_231)"/>
<path d="M73.7623 289.673C72.5738 289.493 71.4553 290.313 71.2756 291.512C71.0958 292.712 71.9147 293.821 73.1131 294.001C74.3115 294.181 75.42 293.361 75.5998 292.162C75.7795 290.963 74.9607 289.853 73.7623 289.673Z" fill="url(#paint14_linear_179_231)"/>
<path d="M263.2 270.504C283.952 270.504 304.754 268.726 325.057 266.986C328.363 266.707 331.668 266.427 334.964 266.147C380.503 262.359 426.891 259.93 471.751 257.592L471.722 257.012C426.861 259.351 380.463 261.779 334.914 265.567C331.608 265.847 328.303 266.127 325.007 266.407C297.394 268.766 268.842 271.204 240.819 269.135C224.461 267.926 207.983 265.158 192.055 262.479C173.359 259.341 154.025 256.093 134.781 255.343C125.214 254.973 115.407 255.203 105.929 255.433C86.006 255.913 65.4034 256.402 45.9893 251.275L45.8396 251.835C65.3336 256.982 85.976 256.492 105.939 256.013C115.407 255.783 125.204 255.553 134.751 255.923C153.965 256.662 173.28 259.91 191.955 263.049C207.903 265.727 224.391 268.496 240.77 269.705C248.22 270.265 255.7 270.504 263.2 270.504Z" fill="url(#paint15_linear_179_231)"/>
<path d="M46.5688 249.447C45.4004 249.147 44.2119 249.857 43.9123 251.026C43.6127 252.195 44.3217 253.385 45.4902 253.684C46.6586 253.984 47.8471 253.275 48.1467 252.105C48.4463 250.936 47.7373 249.747 46.5688 249.447Z" fill="url(#paint16_linear_179_231)"/>
<path d="M167.288 300.468C265.926 269.735 370.586 270.305 471.792 270.865V270.285C370.527 269.735 265.846 269.155 167.108 299.918L167.288 300.468Z" fill="url(#paint17_linear_179_231)"/>
<path d="M166.699 298.089C165.54 298.429 164.881 299.648 165.221 300.807C165.56 301.967 166.779 302.626 167.937 302.286C169.096 301.947 169.755 300.727 169.415 299.568C169.076 298.409 167.857 297.749 166.699 298.089Z" fill="url(#paint18_linear_179_231)"/>
<path d="M244.285 217.485C266.266 217.485 288.256 213.527 309.588 209.689C320.953 207.64 332.697 205.532 344.301 204.032C379.255 199.535 415.037 200.424 449.651 201.274C458 201.484 465.949 202.083 471.352 207.211L471.751 206.791C466.199 201.524 458.14 200.894 449.661 200.694C415.027 199.845 379.215 198.965 344.222 203.463C332.607 204.952 320.853 207.071 309.478 209.119C285.969 213.357 261.652 217.735 237.474 216.775C229.964 216.485 220.217 215.636 211.349 211.678C200.793 206.971 192.594 198.406 185.953 190.65C174.438 177.198 164.471 162.406 156.312 146.675L155.793 146.945C163.972 162.716 173.969 177.547 185.513 191.03C192.194 198.835 200.453 207.45 211.109 212.208C220.067 216.205 229.884 217.055 237.444 217.355C239.731 217.445 242.008 217.485 244.285 217.485Z" fill="url(#paint19_linear_179_231)"/>
<path d="M158.07 145.835C157.491 144.776 156.163 144.386 155.104 144.966C154.045 145.546 153.656 146.875 154.235 147.934C154.814 148.994 156.143 149.383 157.201 148.804C158.26 148.224 158.649 146.895 158.07 145.835Z" fill="url(#paint20_linear_179_231)"/>
<path d="M471.432 182.365L471.462 181.785C451.738 180.816 431.645 180.686 412.201 180.556C379.405 180.336 345.48 180.116 312.434 175.869C275.423 171.111 248.969 161.677 229.155 146.175L228.796 146.635C248.689 162.196 275.244 171.671 312.354 176.448C345.44 180.706 379.375 180.926 412.191 181.146C431.625 181.265 451.718 181.395 471.432 182.365Z" fill="url(#paint21_linear_179_231)"/>
<path d="M230.423 144.707C229.465 143.967 228.096 144.147 227.357 145.107C226.618 146.066 226.798 147.435 227.757 148.175C228.716 148.914 230.084 148.734 230.823 147.775C231.552 146.816 231.382 145.436 230.423 144.707Z" fill="url(#paint22_linear_179_231)"/>
<path d="M471.302 181.375L471.592 180.865C434.242 159.867 398.779 157.528 370.277 155.649C364.754 155.28 359.531 154.94 354.638 154.48C350.124 154.05 345.49 153.661 341.016 153.271C306.692 150.332 271.199 147.294 243.067 127.585C241.658 126.596 240.111 125.397 239.242 123.917L238.742 124.207C239.661 125.786 241.279 127.036 242.737 128.055C270.999 147.854 306.562 150.902 340.966 153.84C345.44 154.22 350.074 154.62 354.588 155.05C359.491 155.509 364.704 155.859 370.237 156.219C398.669 158.098 434.072 160.437 471.302 181.375Z" fill="url(#paint23_linear_179_231)"/>
<path d="M241.099 123.378C240.67 122.249 239.411 121.679 238.283 122.109C237.154 122.539 236.585 123.798 237.014 124.927C237.444 126.057 238.702 126.626 239.831 126.197C240.959 125.767 241.528 124.508 241.099 123.378Z" fill="url(#paint24_linear_179_231)"/>
<path d="M467.577 195.116C468.256 195.116 468.945 195.096 469.625 195.046L469.585 194.467C450.091 195.786 430.666 177.496 411.832 159.816C394.095 143.146 375.75 125.915 357.274 124.896C315.091 122.567 297.564 112.513 287.018 104.018L286.649 104.468C306.872 120.748 334.994 124.246 357.244 125.476C375.51 126.485 393.766 143.645 411.432 160.236C429.698 177.396 448.563 195.116 467.577 195.116Z" fill="url(#paint25_linear_179_231)"/>
<path d="M288.316 102.57C287.377 101.82 285.999 101.97 285.25 102.919C284.501 103.859 284.651 105.238 285.6 105.988C286.539 106.737 287.917 106.587 288.666 105.638C289.415 104.698 289.255 103.329 288.316 102.57Z" fill="url(#paint26_linear_179_231)"/>
<path d="M206.106 298.78C238.813 282.769 278.21 273.934 323.21 272.504C365.853 271.155 410.224 276.532 445.867 280.85C455.963 282.069 465.52 283.728 471.652 290.434L472.082 290.045C465.82 283.188 456.143 281.509 445.936 280.27C410.264 275.953 365.863 270.576 323.19 271.925C278.11 273.354 238.633 282.209 205.847 298.25L206.106 298.78Z" fill="url(#paint27_linear_179_231)"/>
<path d="M205.147 296.52C204.059 297.04 203.599 298.349 204.118 299.438C204.638 300.528 205.946 300.988 207.034 300.468C208.123 299.948 208.582 298.639 208.063 297.55C207.544 296.46 206.236 296 205.147 296.52Z" fill="url(#paint28_linear_179_231)"/>
<path d="M405.759 272.002C426.931 272.002 449.561 270.353 471.841 264.636L471.701 264.077C439.025 272.462 405.54 272.072 377.108 270.583C337.57 268.514 297.664 263.437 259.065 258.53C224.162 254.092 188.07 249.495 153.456 240.32C137.487 236.083 119.361 230.106 106.039 217.903C97.4007 209.987 91.0991 199.783 85.0173 189.919C80.2236 182.153 75.2603 174.118 69.1684 167.182C59.8209 156.548 47.7968 148.472 34.3947 143.835L34.205 144.385C47.5073 148.992 59.4513 157.007 68.7289 167.561C74.7908 174.457 79.7343 182.473 84.5179 190.229C90.6298 200.133 96.9512 210.367 105.65 218.343C119.062 230.636 137.268 236.642 153.306 240.89C187.96 250.085 224.072 254.672 258.995 259.12C297.604 264.027 337.52 269.114 377.078 271.183C386.176 271.642 395.803 272.002 405.759 272.002Z" fill="url(#paint29_linear_179_231)"/>
<path d="M35.1137 142.116C33.9752 141.716 32.7269 142.306 32.3275 143.445C31.928 144.585 32.5172 145.834 33.6556 146.234C34.7941 146.634 36.0425 146.044 36.442 144.905C36.8414 143.765 36.2521 142.516 35.1137 142.116Z" fill="url(#paint30_linear_179_231)"/>
<path d="M80.9031 292.852C102.285 292.852 123.037 285.426 143.12 278.24C151.399 275.282 159.958 272.213 168.436 269.715C194.541 262.019 222.155 259.101 248.859 256.272C253.323 255.803 257.787 255.323 262.251 254.833C273.167 253.624 284.302 252.255 295.077 250.935C353.49 243.78 413.879 236.374 471.652 249.296L471.782 248.727C413.919 235.794 353.47 243.2 295.017 250.356C284.242 251.675 273.107 253.044 262.201 254.254C257.747 254.743 253.283 255.223 248.809 255.693C222.085 258.521 194.442 261.45 168.286 269.155C159.788 271.664 151.219 274.722 142.94 277.69C122.448 285.026 101.276 292.602 79.4649 292.262L79.4549 292.842C79.9243 292.852 80.4137 292.852 80.9031 292.852Z" fill="url(#paint31_linear_179_231)"/>
<path d="M79.5652 290.323C78.3568 290.313 77.3782 291.282 77.3682 292.491C77.3582 293.701 78.3269 294.68 79.5353 294.69C80.7437 294.7 81.7224 293.731 81.7323 292.521C81.7423 291.312 80.7736 290.333 79.5652 290.323Z" fill="url(#paint32_linear_179_231)"/>
<path d="M239.611 304.155C265.267 295.1 285.809 275.881 305.683 257.301C312.873 250.575 320.313 243.619 327.873 237.263C335.733 230.657 345.24 223.461 356.196 220.172C373.882 214.875 392.567 220.053 410.633 225.06L413.979 225.989C422.138 228.228 432.873 230.866 443.469 231.366C454.584 231.886 463.832 230.027 471.751 225.669L471.472 225.16C454.335 234.574 432.863 230.577 414.128 225.43L410.783 224.5C392.627 219.473 373.862 214.276 356.026 219.623C344.971 222.941 335.403 230.177 327.494 236.823C319.924 243.189 312.484 250.156 305.283 256.882C285.46 275.421 264.957 294.6 239.421 303.615L239.611 304.155Z" fill="url(#paint33_linear_179_231)"/>
<path d="M238.852 301.746C237.724 302.166 237.145 303.425 237.554 304.554C237.974 305.684 239.232 306.264 240.36 305.854C241.489 305.434 242.068 304.175 241.659 303.045C241.239 301.906 239.981 301.326 238.852 301.746Z" fill="url(#paint34_linear_179_231)"/>
<path d="M260.783 310.161C278.369 306.054 293.359 294.88 307.86 284.076C321.132 274.182 334.864 263.948 350.633 259.04C368.359 253.533 387.723 255.003 406.458 256.422C428.839 258.121 451.978 259.88 471.841 249.436L471.572 248.916C451.858 259.28 428.799 257.531 406.508 255.832C387.724 254.403 368.299 252.924 350.473 258.471C334.604 263.408 320.833 273.672 307.52 283.596C293.07 294.37 278.13 305.504 260.653 309.582L260.783 310.161Z" fill="url(#paint35_linear_179_231)"/>
<path d="M260.334 307.713C259.155 307.982 258.416 309.152 258.686 310.331C258.956 311.51 260.124 312.25 261.303 311.98C262.481 311.71 263.22 310.541 262.95 309.362C262.681 308.182 261.512 307.443 260.334 307.713Z" fill="url(#paint36_linear_179_231)"/>
<path d="M220.378 305.805C240.831 290.034 266.307 281.729 292.052 282.448C302.329 282.728 312.685 284.447 322.701 286.116C334.446 288.065 346.6 290.074 358.683 289.794C369.998 289.524 381.293 287.225 392.219 285.007C396.193 284.197 400.298 283.368 404.353 282.638C426.593 278.65 449.283 277.551 471.803 279.37L471.853 278.79C449.283 276.971 426.543 278.081 404.253 282.068C400.198 282.798 396.084 283.627 392.109 284.437C381.213 286.656 369.948 288.944 358.683 289.214C346.64 289.514 334.526 287.495 322.801 285.546C312.765 283.877 302.389 282.158 292.072 281.878C266.167 281.159 240.591 289.504 220.028 305.355L220.378 305.805Z" fill="url(#paint37_linear_179_231)"/>
<path d="M218.979 303.786C218.021 304.515 217.841 305.894 218.57 306.854C219.299 307.813 220.677 307.993 221.636 307.264C222.595 306.534 222.774 305.155 222.045 304.195C221.306 303.236 219.938 303.056 218.979 303.786Z" fill="url(#paint38_linear_179_231)"/>
<path d="M467.697 197.566L467.707 196.986C449.192 196.826 431.226 182.814 413.849 169.262C396.392 155.649 378.346 141.567 359.641 141.408C339.009 141.238 317.667 141.058 297.284 135.861C275.523 130.314 257.627 119.16 246.912 104.458L246.442 104.798C257.248 119.61 275.254 130.843 297.145 136.42C317.597 141.637 338.969 141.817 359.641 141.987C378.157 142.147 396.123 156.159 413.499 169.711C430.936 183.324 448.982 197.406 467.697 197.566Z" fill="url(#paint39_linear_179_231)"/>
<path d="M248.53 103.408C247.821 102.429 246.452 102.219 245.474 102.928C244.495 103.638 244.285 105.007 244.994 105.987C245.703 106.966 247.072 107.176 248.05 106.466C249.019 105.747 249.239 104.377 248.53 103.408Z" fill="url(#paint40_linear_179_231)"/>
<path d="M416.075 186.602C426.002 186.602 435.929 185.473 445.616 184.363L471.471 181.405L471.401 180.825L445.546 183.783C432.493 185.273 419.011 186.822 405.699 185.552C395.333 184.573 380.582 181.305 369.178 171.31C356.774 160.447 350.992 144.256 345.399 128.595C344.311 125.546 343.182 122.388 342.034 119.35C333.086 95.7233 320.842 81.6513 305.632 77.5236L305.483 78.0833C320.503 82.161 332.616 96.1131 341.495 119.56C342.643 122.598 343.771 125.746 344.86 128.795C350.483 144.526 356.295 160.786 368.808 171.75C380.333 181.845 395.213 185.143 405.659 186.132C409.114 186.462 412.59 186.602 416.075 186.602Z" fill="url(#paint41_linear_179_231)"/>
<path d="M306.192 75.7649C305.024 75.4551 303.825 76.1547 303.526 77.3241C303.216 78.4934 303.915 79.6927 305.083 79.9925C306.252 80.3024 307.45 79.6028 307.75 78.4334C308.059 77.2641 307.36 76.0748 306.192 75.7649Z" fill="url(#paint42_linear_179_231)"/>
<path d="M217.89 268.526C246.902 268.526 275.933 266.887 304.395 265.278C348.087 262.81 392.957 260.271 437.198 263.729C448.763 264.628 460.287 265.948 471.732 267.777L471.822 267.207C416.516 258.362 359.492 261.58 304.355 264.698C256.918 267.377 207.864 270.145 159.998 265.248C127.641 261.94 113.699 255.254 104.322 249.147C93.2467 241.941 84.3486 231.727 75.74 221.843C74.0623 219.924 72.3945 217.995 70.7067 216.096C47.1581 189.611 25.3872 173.94 2.18812 166.754L2.01842 167.314C25.1076 174.46 46.7987 190.091 70.2674 216.486C71.9551 218.385 73.6329 220.304 75.3007 222.222C83.9392 232.127 92.8673 242.381 104.002 249.627C113.44 255.774 127.461 262.5 159.938 265.818C179.122 267.787 198.506 268.526 217.89 268.526Z" fill="url(#paint43_linear_179_231)"/>
<path d="M2.84683 165.015C1.69837 164.655 0.470005 165.285 0.100498 166.444C-0.259023 167.594 0.37007 168.823 1.52852 169.193C2.67699 169.553 3.90535 168.923 4.27486 167.764C4.63438 166.614 3.9953 165.385 2.84683 165.015Z" fill="url(#paint44_linear_179_231)"/>
<path d="M101.236 341.174C106.769 340.714 112.361 340.844 117.774 340.964C121.649 341.054 125.643 341.154 129.578 341.024C135.36 340.844 139.725 339.345 144.328 337.746C147.274 336.726 150.33 335.677 153.926 334.907C167.148 332.099 202.721 305.044 211.898 295.51C219.229 287.894 225.5 279.149 231.562 270.694C233.18 268.435 234.808 266.176 236.446 263.938C264.997 224.95 294.478 201.013 326.575 190.759C346.579 184.363 366.372 183.863 383.809 189.3C392.937 192.148 401.565 196.696 409.904 201.093C415.167 203.862 420.61 206.73 426.143 209.159C438.456 214.556 456.342 219.453 471.672 212.127L471.422 211.597C456.292 218.823 438.576 213.966 426.372 208.619C420.86 206.2 415.427 203.342 410.174 200.574C401.805 196.166 393.157 191.609 383.979 188.75C366.422 183.273 346.509 183.783 326.396 190.209C294.179 200.504 264.598 224.51 235.966 263.598C234.328 265.837 232.701 268.095 231.083 270.364C225.031 278.799 218.769 287.524 211.469 295.11C206.705 300.057 195.161 309.392 184.015 317.297C176.036 322.964 161.496 332.709 153.786 334.348C150.151 335.117 147.085 336.177 144.119 337.206C139.545 338.785 135.231 340.274 129.538 340.454C125.613 340.584 121.629 340.484 117.764 340.394C112.331 340.264 106.719 340.134 101.216 340.594L101.236 341.174Z" fill="url(#paint45_linear_179_231)"/>
<path d="M102.354 342.813C101.285 343.372 99.967 342.973 99.3978 341.903C98.8385 340.834 99.238 339.515 100.307 338.945C101.375 338.385 102.694 338.785 103.263 339.854C103.832 340.924 103.422 342.253 102.354 342.813Z" fill="url(#paint46_linear_179_231)"/>
<path d="M149.213 301.646C160.328 301.646 177.126 297.998 196.42 281.567C204.569 274.631 211.949 266.636 219.08 258.91C225.711 251.724 232.572 244.298 240.032 237.742C272.838 208.898 308.051 206.32 330.072 213.526C337.192 215.854 343.983 219.362 350.554 222.751C355.658 225.379 360.931 228.098 366.333 230.266C388.384 239.091 413.441 238.991 435.541 238.901C447.146 238.851 460.298 238.801 471.763 233.814L471.533 233.285C460.178 238.222 447.096 238.282 435.541 238.332C413.5 238.432 388.504 238.532 366.553 229.747C361.17 227.588 355.907 224.879 350.824 222.251C344.233 218.853 337.422 215.335 330.251 212.996C315.641 208.219 299.123 208.299 282.485 213.246C267.236 217.773 252.425 226.099 239.652 237.332C232.172 243.909 225.301 251.344 218.66 258.54C211.53 266.256 204.17 274.241 196.05 281.147C171.843 301.756 151.64 302.116 141.753 300.497L141.663 301.066C143.74 301.396 146.287 301.646 149.213 301.646Z" fill="url(#paint47_linear_179_231)"/>
<path d="M142.182 298.588C140.994 298.388 139.865 299.198 139.666 300.387C139.466 301.577 140.275 302.706 141.463 302.906C142.652 303.106 143.78 302.296 143.98 301.107C144.18 299.918 143.371 298.788 142.182 298.588Z" fill="url(#paint48_linear_179_231)"/>
<path d="M129.909 305.505C138.048 305.505 146.167 304.356 153.997 302.067C167.509 298.109 179.902 290.843 191.886 283.817C195.661 281.608 199.566 279.32 203.441 277.171C222.326 266.707 241.81 258.901 261.344 253.984C278.511 249.657 293.83 248.047 308.171 249.027C319.276 249.796 330.362 252.215 341.077 254.554C346.71 255.783 352.532 257.052 358.294 258.072C394.965 264.548 432.935 261.52 468.108 249.297C469.516 248.807 471.074 248.167 471.763 246.798C472.162 245.989 472.013 244.849 471.403 244.09C470.934 243.51 470.305 243.27 469.656 243.44L469.796 244C470.355 243.85 470.754 244.22 470.944 244.45C471.413 245.029 471.543 245.929 471.234 246.538C470.644 247.718 469.266 248.277 467.908 248.747C432.825 260.93 394.955 263.958 358.384 257.492C352.632 256.473 346.82 255.203 341.197 253.974C330.461 251.625 319.356 249.207 308.201 248.437C293.8 247.448 278.421 249.067 261.194 253.404C241.61 258.332 222.086 266.157 203.151 276.651C199.266 278.8 195.362 281.089 191.587 283.308C179.633 290.314 167.269 297.569 153.827 301.497C140.325 305.445 125.904 305.985 112.123 303.036L112.003 303.606C117.895 304.875 123.907 305.505 129.909 305.505Z" fill="url(#paint49_linear_179_231)"/>
<path d="M112.621 301.178C111.443 300.938 110.285 301.697 110.045 302.877C109.805 304.056 110.564 305.215 111.753 305.455C112.931 305.695 114.089 304.936 114.329 303.756C114.559 302.567 113.8 301.418 112.621 301.178Z" fill="url(#paint50_linear_179_231)"/>
<path d="M134.332 319.077C183.247 319.077 234.608 301.637 279.598 269.055C283.184 266.457 286.789 263.728 290.274 261.09C303.327 251.215 316.819 241.001 332.308 235.344C357.714 226.06 385.347 229.887 412.072 233.595C431.726 236.324 452.038 239.142 471.702 236.894L471.632 236.314C452.048 238.553 431.765 235.734 412.152 233.016C385.357 229.298 357.654 225.45 332.108 234.795C316.529 240.491 303.007 250.726 289.925 260.62C286.439 263.259 282.834 265.987 279.259 268.576C223.633 308.863 158.25 325.953 99.8881 315.469L99.7881 316.039C111.073 318.078 122.638 319.077 134.332 319.077Z" fill="url(#paint51_linear_179_231)"/>
<path d="M100.277 313.56C99.0889 313.37 97.9704 314.19 97.7807 315.379C97.5909 316.568 98.4099 317.688 99.5983 317.878C100.787 318.067 101.905 317.248 102.095 316.059C102.285 314.869 101.476 313.75 100.277 313.56Z" fill="url(#paint52_linear_179_231)"/>
<path d="M282.905 320.987C295.138 311.052 309.789 304.336 325.278 301.588C339.04 299.139 353.321 299.839 367.122 300.508C368.96 300.598 370.798 300.688 372.625 300.768C390.072 301.548 408.647 301.698 426.343 297.53C445.658 292.983 461.886 283.368 472.022 270.465L471.563 270.106C461.506 282.898 445.398 292.443 426.214 296.96C408.587 301.118 390.052 300.968 372.655 300.179C370.827 300.099 368.99 300.009 367.152 299.919C353.311 299.249 339 298.549 325.178 301.008C309.599 303.777 294.849 310.533 282.545 320.527L282.905 320.987Z" fill="url(#paint53_linear_179_231)"/>
<path d="M281.476 319.018C280.527 319.767 280.377 321.147 281.126 322.086C281.875 323.036 283.253 323.186 284.192 322.436C285.141 321.686 285.29 320.307 284.541 319.368C283.802 318.418 282.424 318.268 281.476 319.018Z" fill="url(#paint54_linear_179_231)"/>
<path d="M302.257 330.939C310.746 320.835 325.376 315.358 345.739 314.658C349.704 314.518 353.778 314.518 357.713 314.518C370.396 314.508 383.508 314.498 395.532 310.091C408.455 305.354 419.231 295.849 429.667 286.664C442.839 275.061 455.293 264.097 471.801 261.628L471.711 261.049C455.033 263.547 441.941 275.071 429.277 286.224C418.891 295.369 408.146 304.834 395.323 309.541C383.399 313.919 370.336 313.929 357.703 313.939C353.758 313.939 349.684 313.949 345.709 314.079C325.176 314.778 310.396 320.325 301.797 330.569L302.257 330.939Z" fill="url(#paint55_linear_179_231)"/>
<path d="M300.43 329.31C299.671 330.25 299.811 331.619 300.739 332.389C301.678 333.148 303.046 333.008 303.815 332.079C304.574 331.139 304.435 329.77 303.506 329.001C302.577 328.231 301.199 328.371 300.43 329.31Z" fill="url(#paint56_linear_179_231)"/>
<path d="M280.147 403.749C289.155 400.92 297.175 395.683 303.356 388.597C310.267 380.662 314.482 370.977 318.556 361.613C321.372 355.146 324.279 348.47 328.044 342.423C338.45 325.733 355.886 322.125 373.173 320.706C375.87 320.486 378.626 320.306 381.293 320.126C392.388 319.396 403.862 318.637 414.448 314.809C428.639 309.672 440.693 298.988 447.494 285.506C449.502 281.538 451.189 277.15 452.827 272.923C457.091 261.889 461.496 250.485 471.822 245.408L471.562 244.889C461.026 250.056 456.582 261.579 452.278 272.713C450.65 276.931 448.962 281.298 446.975 285.246C440.234 298.598 428.31 309.182 414.249 314.269C403.743 318.067 392.308 318.827 381.253 319.546C378.586 319.716 375.83 319.906 373.133 320.126C355.697 321.555 338.1 325.213 327.554 342.114C323.759 348.19 320.843 354.896 318.027 361.383C313.972 370.707 309.778 380.342 302.917 388.208C296.805 395.214 288.876 400.401 279.978 403.189L280.147 403.749Z" fill="url(#paint57_linear_179_231)"/>
<path d="M279.509 401.321C278.36 401.68 277.711 402.9 278.071 404.059C278.43 405.208 279.648 405.858 280.807 405.498C281.955 405.138 282.605 403.919 282.245 402.76C281.886 401.61 280.657 400.961 279.509 401.321Z" fill="url(#paint58_linear_179_231)"/>
<path d="M347.578 380.283C356.086 365.062 364.914 350.76 379.245 343.114C385.627 339.706 393.756 338.297 401.625 336.937C411.872 335.158 422.478 333.329 429.648 327.083C441.772 316.529 444.029 294.471 445.377 281.299C445.677 278.361 445.956 275.432 446.236 272.524C447.534 259.032 448.753 246.279 451.789 233.076C455.683 216.126 462.165 206.441 471.622 203.453L471.442 202.903C461.775 205.962 455.164 215.786 451.219 232.946C448.183 246.189 446.955 258.962 445.657 272.474C445.377 275.382 445.097 278.311 444.798 281.249C443.46 294.342 441.213 316.259 429.269 326.653C422.218 332.79 411.702 334.609 401.526 336.378C393.616 337.747 385.427 339.166 378.976 342.614C364.505 350.34 355.627 364.712 347.078 380.013L347.578 380.283Z" fill="url(#paint59_linear_179_231)"/>
<path d="M345.51 378.974C344.911 380.023 345.27 381.352 346.309 381.962C347.357 382.562 348.686 382.202 349.295 381.162C349.894 380.113 349.535 378.784 348.496 378.174C347.447 377.564 346.109 377.924 345.51 378.974Z" fill="url(#paint60_linear_179_231)"/>
<path d="M200.653 361.593C211.908 361.593 222.863 359.834 229.744 351.278C250.496 325.493 271.518 301.846 300.429 295.77C307.989 294.181 315.869 293.911 323.489 293.651C325.466 293.581 327.443 293.521 329.411 293.431C342.823 292.822 360.01 291.003 373.991 282.208C387.893 273.462 397.081 259.001 405.859 244.819C405.27 246.188 404.69 247.547 404.111 248.916C398.489 262.149 392.676 275.821 382.041 285.286C369.937 296.07 353.489 299.778 337.57 303.366C322.42 306.784 306.761 310.322 294.637 319.916C290.113 323.494 286.159 327.882 282.344 332.119C277.53 337.456 272.557 342.973 266.475 346.821L266.784 347.311C272.936 343.423 277.939 337.876 282.773 332.509C286.578 328.281 290.513 323.914 294.997 320.366C307.011 310.851 322.61 307.333 337.7 303.925C353.678 300.317 370.206 296.589 382.42 285.706C393.146 276.151 398.988 262.409 404.641 249.126C405.739 246.528 406.858 243.919 408.006 241.331C417.164 226.579 426.841 211.737 441.901 203.992C444.927 202.862 448.152 201.953 451.578 201.253C453.216 200.924 455.553 200.844 458.029 200.764C463.482 200.584 469.664 200.384 471.751 197.446L472.061 197.016L471.531 196.986C462.843 196.556 452.617 198.525 444.208 202.243C443.349 202.623 442.5 203.032 441.671 203.452C436.658 205.321 432.194 207.78 428.349 210.788C418.532 218.474 412.6 229.577 407.497 241.051C407.037 241.8 406.578 242.54 406.109 243.29C397.14 257.781 387.863 272.773 373.682 281.698C359.82 290.413 342.723 292.222 329.391 292.832C327.423 292.921 325.446 292.991 323.479 293.051C315.839 293.311 307.929 293.581 300.33 295.18C271.228 301.297 250.137 325.023 229.314 350.899C220.127 362.312 203.349 361.373 188.549 360.543L187.75 360.503L187.72 361.083L188.519 361.123C192.463 361.363 196.578 361.593 200.653 361.593ZM437.517 205.871C425.822 213.327 417.523 225.13 409.854 237.283C414.537 227.339 420.13 217.984 428.688 211.288C431.345 209.209 434.291 207.4 437.517 205.871ZM470.902 197.575C468.665 199.874 463.023 200.054 457.999 200.214C455.493 200.294 453.126 200.374 451.448 200.714C449.84 201.043 448.282 201.413 446.764 201.833C454.414 198.855 463.222 197.286 470.902 197.575Z" fill="url(#paint61_linear_179_231)"/>
<path d="M265.576 345.142C264.548 345.761 264.208 347.11 264.837 348.14C265.456 349.169 266.805 349.509 267.833 348.879C268.862 348.26 269.202 346.911 268.572 345.881C267.953 344.852 266.605 344.522 265.576 345.142Z" fill="url(#paint62_linear_179_231)"/>
<path d="M187.72 362.982C186.512 362.922 185.583 361.902 185.643 360.693C185.703 359.483 186.721 358.554 187.93 358.614C189.138 358.674 190.067 359.693 190.007 360.903C189.947 362.112 188.918 363.041 187.72 362.982Z" fill="url(#paint63_linear_179_231)"/>
<path d="M254.272 340.795C261.762 338.026 268.064 332.679 274.145 327.512C278.33 323.964 282.654 320.286 287.348 317.448C299.951 309.842 315.051 308.283 329.651 306.784C341.915 305.515 354.598 304.215 365.963 299.378C387.295 290.293 401.006 270.495 414.269 251.335C419.052 244.429 423.996 237.283 429.219 230.767C433.633 225.26 439.695 218.354 447.504 213.767C455.344 209.159 464.082 207.63 471.472 209.579L471.622 209.019C464.082 207.031 455.184 208.58 447.215 213.267C439.325 217.904 433.213 224.86 428.769 230.407C423.536 236.944 418.583 244.09 413.799 251.006C400.587 270.095 386.925 289.824 365.743 298.839C354.458 303.646 341.825 304.945 329.602 306.204C314.931 307.713 299.771 309.283 287.058 316.948C282.315 319.807 277.98 323.495 273.776 327.063C267.724 332.2 261.472 337.517 254.082 340.245L254.272 340.795Z" fill="url(#paint64_linear_179_231)"/>
<path d="M253.563 338.406C252.424 338.796 251.815 340.045 252.204 341.184C252.594 342.324 253.842 342.933 254.981 342.544C256.119 342.154 256.728 340.905 256.339 339.765C255.949 338.616 254.701 338.016 253.563 338.406Z" fill="url(#paint65_linear_179_231)"/>
<path d="M132.055 416.383C164.103 413.654 194.183 392.036 206.896 362.583C207.854 360.364 208.743 358.066 209.592 355.837C211.38 351.19 213.227 346.392 215.844 342.085C222.914 330.431 235.158 322.886 245.954 316.229C248.39 314.73 250.937 313.231 253.394 311.792C259.006 308.494 264.808 305.086 270.031 301.188C296.966 281.059 328.743 267.517 361.909 262.03C365.404 261.45 369.019 260.941 372.505 260.451C387.245 258.372 402.485 256.213 415.088 248.188C420.461 244.77 425.185 240.352 429.768 236.085C433.224 232.857 436.809 229.519 440.634 226.64C454.705 216.046 465.551 217.895 469.565 219.184L469.745 218.635C465.651 217.315 454.575 215.427 440.284 226.18C436.43 229.079 432.844 232.427 429.369 235.665C424.815 239.913 420.101 244.31 414.778 247.698C402.285 255.654 387.105 257.803 372.435 259.871C368.94 260.361 365.324 260.871 361.819 261.45C328.563 266.957 296.706 280.53 269.692 300.718C264.489 304.606 258.707 308.004 253.104 311.292C250.647 312.731 248.101 314.231 245.654 315.74C234.798 322.436 222.495 330.012 215.344 341.785C212.708 346.132 210.85 350.96 209.053 355.627C208.204 357.846 207.315 360.135 206.366 362.343C193.733 391.597 163.853 413.085 132.015 415.793L132.055 416.383Z" fill="url(#paint66_linear_179_231)"/>
<path d="M468.787 220.934C469.915 221.353 471.173 220.774 471.593 219.644C472.012 218.515 471.433 217.256 470.305 216.836C469.176 216.416 467.918 216.996 467.498 218.125C467.079 219.255 467.658 220.514 468.787 220.934Z" fill="url(#paint67_linear_179_231)"/>
<path d="M132.345 418.202C131.147 418.322 130.078 417.442 129.958 416.233C129.838 415.034 130.717 413.964 131.926 413.844C133.124 413.724 134.193 414.604 134.313 415.813C134.422 417.022 133.544 418.092 132.345 418.202Z" fill="url(#paint68_linear_179_231)"/>
<path d="M152.796 279.319C168.585 279.319 183.855 276.021 197.077 269.525C212.657 261.879 225.859 249.856 238.622 238.232C253.123 225.03 268.113 211.368 286.528 204.302C309.647 195.417 337.6 198.155 359.471 211.428C362.676 213.376 365.822 215.565 368.858 217.694C374.231 221.442 379.784 225.32 385.895 227.978C402.433 235.164 420.859 232.785 438.685 230.487C449.541 229.088 460.766 227.638 471.601 228.308L471.641 227.728C460.756 227.059 449.501 228.508 438.615 229.917C420.06 232.306 402.533 234.574 386.135 227.448C380.073 224.82 374.551 220.952 369.198 217.224C366.152 215.095 362.996 212.897 359.78 210.938C337.76 197.565 309.607 194.817 286.328 203.762C267.813 210.868 252.773 224.57 238.232 237.813C225.499 249.406 212.337 261.399 196.828 269.015C174.927 279.769 147.354 281.708 121.179 274.342C97.9995 267.816 75.7791 254.573 55.1466 234.974C52.1307 232.116 49.1147 229.088 46.1886 226.159C34.6939 214.636 22.7998 202.712 7.64005 196.996L7.43024 197.535C22.4702 203.202 34.3144 215.076 45.7691 226.559C48.6952 229.487 51.7212 232.526 54.7371 235.384C75.4395 255.043 97.7398 268.335 121.009 274.892C131.535 277.86 142.28 279.319 152.796 279.319Z" fill="url(#paint69_linear_179_231)"/>
<path d="M8.39891 195.287C7.27041 194.868 6.01214 195.437 5.58272 196.567C5.15329 197.696 5.73255 198.955 6.86104 199.385C7.98954 199.805 9.2478 199.235 9.67723 198.106C10.1067 196.976 9.53739 195.717 8.39891 195.287Z" fill="url(#paint70_linear_179_231)"/>
<path d="M454.724 183.273C460.327 183.273 465.979 182.754 471.502 181.694L471.392 181.125C458.03 183.673 443.929 183.103 431.665 179.505C418.103 175.528 407.228 168.042 400.217 157.868C393.176 147.644 390.21 135.171 387.334 123.117C386.885 121.218 386.435 119.33 385.966 117.441C380.843 96.7124 373.533 76.4538 364.255 57.2447C359.372 47.1205 353.13 35.497 343.942 26.0224C326.845 8.39239 299.591 -0.6325 271.019 1.87608L271.069 2.45575C299.451 -0.0428321 326.545 8.92209 343.523 26.4222C352.651 35.8368 358.862 47.4103 363.726 57.4946C372.993 76.6737 380.284 96.8923 385.397 117.581C385.866 119.459 386.316 121.348 386.765 123.247C389.651 135.35 392.627 147.873 399.728 158.188C406.808 168.472 417.794 176.037 431.495 180.055C438.776 182.194 446.695 183.273 454.724 183.273Z" fill="url(#paint71_linear_179_231)"/>
<path d="M270.979 0.00758559C269.781 0.107529 268.882 1.16693 268.982 2.36625C269.082 3.56557 270.14 4.46506 271.339 4.36512C272.537 4.26518 273.436 3.20577 273.336 2.00645C273.236 0.807133 272.178 -0.0923578 270.979 0.00758559Z" fill="url(#paint72_linear_179_231)"/>
<path d="M471.442 187.851L471.492 187.271C447.664 185.292 436.988 176.147 432.225 168.821C428.39 162.925 426.812 155.979 425.773 149.962C421.709 126.465 423.686 102.199 425.593 78.7325C426.802 63.9008 428.05 48.5695 427.78 33.5081C427.751 31.6591 427.721 29.7602 427.691 27.8213C427.601 22.3544 427.511 16.7076 427.331 10.8109L426.752 10.8309C426.932 16.7176 427.021 22.3644 427.111 27.8313C427.141 29.7702 427.171 31.6691 427.201 33.5181C427.471 48.5496 426.223 63.8609 425.024 78.6825C423.107 102.189 421.129 126.495 425.204 150.062C426.252 156.139 427.85 163.165 431.745 169.141C436.569 176.567 447.374 185.852 471.442 187.851Z" fill="url(#paint73_linear_179_231)"/>
<path d="M429.199 10.8914C429.169 9.68205 428.18 8.72259 426.972 8.75258C425.763 8.78256 424.804 9.782 424.834 10.9813C424.864 12.1906 425.863 13.1501 427.061 13.1201C428.27 13.1001 429.228 12.1007 429.199 10.8914Z" fill="url(#paint74_linear_179_231)"/>
<path d="M459.339 214.596C463.273 214.596 467.328 214.526 471.572 214.446L471.562 213.867C454.635 214.216 440.564 214.226 426.423 211.018C410.044 207.31 396.502 199.285 388.313 188.441C377.947 174.719 375.82 156.489 375.121 143.976C373.204 109.536 379.295 76.0447 386.845 38.9857L386.276 38.8658C378.716 75.9748 372.614 109.496 374.542 144.006C375.241 156.599 377.388 174.949 387.854 188.791C396.133 199.745 409.785 207.84 426.303 211.578C436.948 213.997 447.554 214.596 459.339 214.596Z" fill="url(#paint75_linear_179_231)"/>
<path d="M388.703 39.4547C388.932 38.2654 388.163 37.116 386.985 36.8862C385.796 36.6563 384.648 37.4259 384.418 38.6052C384.189 39.7945 384.958 40.9439 386.136 41.1737C387.314 41.4036 388.463 40.634 388.703 39.4547Z" fill="url(#paint76_linear_179_231)"/>
<mask id="mask0_179_231" style="mask-type:alpha" maskUnits="userSpaceOnUse" x="469" y="96" width="4" height="198">
<path d="M470.983 293.001L472.621 291.352L471.992 290.733L470.484 96.8524L469.455 96.8623L470.983 293.001Z" fill="url(#paint77_linear_179_231)"/>
</mask>
<g mask="url(#mask0_179_231)">
<path d="M470.983 293.001L472.621 291.352L471.992 290.733L470.484 96.8524L469.455 96.8623L470.983 293.001Z" fill="url(#paint78_linear_179_231)"/>
</g>
<mask id="mask1_179_231" style="mask-type:alpha" maskUnits="userSpaceOnUse" x="469" y="171" width="4" height="239">
<path d="M471.292 409.957H472.331L470.793 171.782L469.155 173.431L469.784 174.051L471.292 409.957Z" fill="url(#paint79_linear_179_231)"/>
</mask>
<g mask="url(#mask1_179_231)">
<path d="M471.292 409.957H472.331L470.793 171.781L469.155 173.431L469.784 174.05L471.292 409.957Z" fill="url(#paint80_linear_179_231)"/>
</g>
<path d="M98.8188 235.753C98.8188 236.943 97.8601 237.912 96.6717 237.922C95.4833 237.922 94.5146 236.963 94.5047 235.773C94.5047 234.584 95.4633 233.614 96.6517 233.604C97.8401 233.594 98.8089 234.564 98.8188 235.753Z" fill="#71F2FF"/>
<path d="M79.6943 204.461C79.6943 205.651 78.7357 206.62 77.5473 206.63C76.3589 206.63 75.3901 205.671 75.3801 204.481C75.3801 203.292 76.3389 202.323 77.5273 202.313C78.7157 202.303 79.6843 203.272 79.6943 204.461Z" fill="#71F2FF"/>
<path d="M143.619 216.115C144.149 216.115 144.578 216.535 144.578 217.065C144.578 217.594 144.159 218.024 143.629 218.024C143.1 218.024 142.671 217.604 142.671 217.075C142.671 216.545 143.1 216.115 143.619 216.115Z" fill="#71F2FF"/>
<path d="M139.335 241.92C139.865 241.92 140.294 242.34 140.294 242.869C140.294 243.399 139.874 243.829 139.345 243.829C138.816 243.829 138.386 243.409 138.386 242.879C138.386 242.35 138.806 241.92 139.335 241.92Z" fill="#71F2FF"/>
<path d="M92.6875 218.213C92.6875 218.833 92.1882 219.333 91.579 219.333C90.9598 219.333 90.4605 218.833 90.4605 218.223C90.4605 217.604 90.9598 217.104 91.569 217.104C92.1782 217.104 92.6875 217.604 92.6875 218.213Z" fill="#71F2FF"/>
<path d="M143.689 232.295C143.689 232.915 143.19 233.415 142.581 233.415C141.962 233.415 141.462 232.915 141.462 232.305C141.462 231.686 141.962 231.186 142.571 231.186C143.18 231.176 143.679 231.676 143.689 232.295Z" fill="#71F2FF"/>
<path d="M149.472 256.052C149.472 256.672 148.972 257.172 148.363 257.172C147.744 257.172 147.245 256.672 147.245 256.062C147.245 255.443 147.744 254.943 148.353 254.943C148.972 254.943 149.472 255.433 149.472 256.052Z" fill="#71F2FF"/>
<path d="M473 242.131C473 243.32 472.041 244.289 470.853 244.299C469.664 244.299 468.696 243.34 468.686 242.151C468.686 240.961 469.644 239.992 470.833 239.982C472.021 239.972 472.99 240.941 473 242.131Z" fill="#71F2FF"/>
<path d="M453.939 267.065C452.767 266.848 451.994 265.722 452.21 264.55C452.427 263.377 453.553 262.603 454.724 262.82C455.896 263.037 456.669 264.163 456.453 265.336C456.236 266.508 455.11 267.282 453.939 267.065Z" fill="#71F2FF"/>
<path d="M462.933 227.099C463.463 227.099 463.892 227.519 463.892 228.049C463.892 228.579 463.473 229.008 462.943 229.008C462.414 229.008 461.985 228.589 461.985 228.059C461.985 227.529 462.414 227.099 462.933 227.099Z" fill="#71F2FF"/>
<path d="M458.649 252.905C459.178 252.905 459.608 253.325 459.608 253.855C459.608 254.384 459.188 254.814 458.659 254.814C458.13 254.814 457.7 254.394 457.7 253.865C457.7 253.345 458.12 252.915 458.649 252.905Z" fill="#71F2FF"/>
<path d="M455.363 242.201C455.363 242.821 454.864 243.32 454.255 243.32C453.646 243.32 453.136 242.821 453.136 242.211C453.136 241.591 453.636 241.092 454.245 241.092C454.854 241.082 455.353 241.581 455.363 242.201Z" fill="#71F2FF"/>
<path d="M463.003 243.28C463.003 243.9 462.504 244.4 461.895 244.4C461.276 244.4 460.776 243.9 460.776 243.29C460.776 242.671 461.276 242.171 461.885 242.171C462.494 242.171 462.993 242.671 463.003 243.28Z" fill="#71F2FF"/>
<path d="M468.786 267.047C468.786 267.667 468.287 268.167 467.678 268.167C467.068 268.167 466.559 267.667 466.559 267.057C466.559 266.438 467.058 265.938 467.668 265.938C468.287 265.928 468.786 266.428 468.786 267.047Z" fill="#71F2FF"/>
<path d="M380.843 194.378C380.843 195.567 379.885 196.537 378.696 196.547C377.508 196.557 376.539 195.587 376.529 194.398C376.529 193.208 377.488 192.239 378.676 192.229C379.865 192.229 380.833 193.188 380.843 194.378Z" fill="#71F2FF"/>
<path d="M351.042 162.745C351.042 163.935 350.084 164.904 348.895 164.914C347.707 164.914 346.738 163.955 346.728 162.765C346.728 161.576 347.687 160.606 348.875 160.596C350.074 160.596 351.042 161.556 351.042 162.745Z" fill="#71F2FF"/>
<path d="M375.46 126.017C375.989 126.017 376.419 126.436 376.419 126.966C376.419 127.496 375.999 127.925 375.47 127.925C374.941 127.925 374.511 127.506 374.511 126.976C374.511 126.446 374.941 126.017 375.46 126.017Z" fill="#71F2FF"/>
<path d="M360.88 150.373C361.409 150.373 361.838 150.793 361.838 151.322C361.838 151.852 361.419 152.282 360.89 152.282C360.36 152.282 359.931 151.862 359.931 151.332C359.931 150.803 360.36 150.383 360.88 150.373Z" fill="#71F2FF"/>
<path d="M381.762 144.187C381.762 144.806 381.262 145.306 380.653 145.306C380.034 145.306 379.535 144.806 379.535 144.197C379.535 143.577 380.034 143.077 380.643 143.077C381.252 143.067 381.762 143.567 381.762 144.187Z" fill="#71F2FF"/>
<path d="M372.075 144.546C372.075 145.165 371.575 145.665 370.966 145.665C370.347 145.665 369.848 145.165 369.848 144.556C369.848 143.936 370.347 143.436 370.956 143.436C371.565 143.426 372.075 143.926 372.075 144.546Z" fill="#71F2FF"/>
<path d="M377.867 168.303C377.867 168.922 377.368 169.422 376.759 169.422C376.149 169.422 375.64 168.922 375.64 168.313C375.64 167.693 376.139 167.193 376.749 167.193C377.358 167.193 377.857 167.693 377.867 168.303Z" fill="#71F2FF"/>
<path d="M316.538 455.009C322.929 442.516 334.154 432.722 347.346 428.144C352.5 426.355 357.982 425.336 363.275 424.347C367.36 423.587 371.584 422.797 375.649 421.658C389.051 417.92 401.634 409.655 411.091 398.401C420.549 387.148 426.521 373.315 427.899 359.463C428.328 355.166 428.368 350.778 428.408 346.531C428.448 342.343 428.488 338.005 428.908 333.778C429.986 322.764 433.721 311.011 440.313 297.868C447.733 283.067 456.131 275.201 465.988 273.812L465.908 273.232C455.852 274.641 447.313 282.617 439.793 297.598C433.162 310.811 429.417 322.624 428.328 333.718C427.909 337.975 427.869 342.323 427.829 346.521C427.789 350.758 427.749 355.126 427.32 359.403C425.952 373.136 420.03 386.858 410.642 398.021C401.265 409.185 388.781 417.38 375.489 421.098C371.444 422.228 367.24 423.017 363.165 423.767C357.852 424.756 352.35 425.786 347.157 427.585C333.825 432.212 322.48 442.106 316.018 454.729L316.538 455.009Z" fill="url(#paint81_linear_179_231)"/>
<path d="M314.451 453.79C313.892 454.86 314.301 456.179 315.36 456.748C316.428 457.308 317.747 456.898 318.316 455.839C318.875 454.77 318.466 453.45 317.407 452.881C316.339 452.311 315.02 452.721 314.451 453.79Z" fill="url(#paint82_linear_179_231)"/>
<path d="M25.5449 290.273C21.4205 294.36 21.4005 301.027 25.485 305.144C29.5696 309.262 36.2307 309.292 40.3452 305.204C44.4697 301.117 44.4897 294.45 40.4051 290.333C36.3306 286.205 29.6694 286.175 25.5449 290.273Z" fill="#00FFFF"/>
<path d="M93.1758 74.2158C96.9807 74.2258 100.077 71.1575 100.087 67.3496C100.097 63.5418 97.0307 60.4436 93.2257 60.4336C89.4208 60.4236 86.325 63.4918 86.315 67.2997C86.305 71.1075 89.3709 74.2058 93.1758 74.2158Z" fill="#00FFFF"/>
<path d="M77.0173 153.001C81.9707 153.021 86.0052 149.013 86.0252 144.056C86.0452 139.098 82.0406 135.061 77.0872 135.041C72.1338 135.021 68.0991 139.029 68.0792 143.986C68.0592 148.943 72.0639 152.981 77.0173 153.001Z" fill="#FF00FF"/>
<path d="M252.174 338.296C256.398 338.316 259.844 334.898 259.864 330.66C259.884 326.433 256.468 322.985 252.234 322.965C247.999 322.945 244.564 326.363 244.544 330.6C244.524 334.838 247.939 338.286 252.174 338.296Z" fill="#FF00FF"/>
<defs>
<linearGradient id="paint0_linear_179_231" x1="302.036" y1="242.269" x2="302.002" y2="233.573" gradientUnits="userSpaceOnUse">
<stop offset="0.00436282" stop-color="#8F45ED"/>
<stop offset="1" stop-color="#3DDEED"/>
</linearGradient>
<linearGradient id="paint1_linear_179_231" x1="132.506" y1="242.933" x2="132.472" y2="234.23" gradientUnits="userSpaceOnUse">
<stop offset="0.00436282" stop-color="#8F45ED"/>
<stop offset="1" stop-color="#3DDEED"/>
</linearGradient>
<linearGradient id="paint2_linear_179_231" x1="298.153" y1="234.692" x2="298.024" y2="201.637" gradientUnits="userSpaceOnUse">
<stop offset="0.00436282" stop-color="#8F45ED"/>
<stop offset="1" stop-color="#3DDEED"/>
</linearGradient>
<linearGradient id="paint3_linear_179_231" x1="124.84" y1="235.37" x2="124.711" y2="202.315" gradientUnits="userSpaceOnUse">
<stop offset="0.00436282" stop-color="#8F45ED"/>
<stop offset="1" stop-color="#3DDEED"/>
</linearGradient>
<linearGradient id="paint4_linear_179_231" x1="288.531" y1="260.582" x2="288.135" y2="159.296" gradientUnits="userSpaceOnUse">
<stop offset="0.00436282" stop-color="#8F45ED"/>
<stop offset="1" stop-color="#3DDEED"/>
</linearGradient>
<linearGradient id="paint5_linear_179_231" x1="105.551" y1="261.3" x2="105.154" y2="160.013" gradientUnits="userSpaceOnUse">
<stop offset="0.00436282" stop-color="#8F45ED"/>
<stop offset="1" stop-color="#3DDEED"/>
</linearGradient>
<linearGradient id="paint6_linear_179_231" x1="294.847" y1="242.922" x2="294.534" y2="162.846" gradientUnits="userSpaceOnUse">
<stop offset="0.00436282" stop-color="#8F45ED"/>
<stop offset="1" stop-color="#3DDEED"/>
</linearGradient>
<linearGradient id="paint7_linear_179_231" x1="152.798" y1="243.482" x2="152.484" y2="163.402" gradientUnits="userSpaceOnUse">
<stop offset="0.00436282" stop-color="#8F45ED"/>
<stop offset="1" stop-color="#3DDEED"/>
</linearGradient>
<linearGradient id="paint8_linear_179_231" x1="117.175" y1="243.623" x2="116.862" y2="163.542" gradientUnits="userSpaceOnUse">
<stop offset="0.00436282" stop-color="#8F45ED"/>
<stop offset="1" stop-color="#3DDEED"/>
</linearGradient>
<linearGradient id="paint9_linear_179_231" x1="309.303" y1="292.306" x2="309.167" y2="257.542" gradientUnits="userSpaceOnUse">
<stop offset="0.00436282" stop-color="#8F45ED"/>
<stop offset="1" stop-color="#3DDEED"/>
</linearGradient>
<linearGradient id="paint10_linear_179_231" x1="146.998" y1="292.942" x2="146.862" y2="258.178" gradientUnits="userSpaceOnUse">
<stop offset="0.00436282" stop-color="#8F45ED"/>
<stop offset="1" stop-color="#3DDEED"/>
</linearGradient>
<linearGradient id="paint11_linear_179_231" x1="342.908" y1="210.447" x2="342.715" y2="160.995" gradientUnits="userSpaceOnUse">
<stop offset="0.00436282" stop-color="#8F45ED"/>
<stop offset="1" stop-color="#3DDEED"/>
</linearGradient>
<linearGradient id="paint12_linear_179_231" x1="214.57" y1="210.951" x2="214.377" y2="161.497" gradientUnits="userSpaceOnUse">
<stop offset="0.00436282" stop-color="#8F45ED"/>
<stop offset="1" stop-color="#3DDEED"/>
</linearGradient>
<linearGradient id="paint13_linear_179_231" x1="272.59" y1="291.647" x2="272.387" y2="239.708" gradientUnits="userSpaceOnUse">
<stop offset="0.00436282" stop-color="#8F45ED"/>
<stop offset="1" stop-color="#3DDEED"/>
</linearGradient>
<linearGradient id="paint14_linear_179_231" x1="73.4398" y1="292.424" x2="73.2365" y2="240.468" gradientUnits="userSpaceOnUse">
<stop offset="0.00436282" stop-color="#8F45ED"/>
<stop offset="1" stop-color="#3DDEED"/>
</linearGradient>
<linearGradient id="paint15_linear_179_231" x1="258.858" y1="270.52" x2="258.778" y2="249.897" gradientUnits="userSpaceOnUse">
<stop offset="0.00436282" stop-color="#8F45ED"/>
<stop offset="1" stop-color="#3DDEED"/>
</linearGradient>
<linearGradient id="paint16_linear_179_231" x1="46.1081" y1="271.359" x2="46.0274" y2="250.73" gradientUnits="userSpaceOnUse">
<stop offset="0.00436282" stop-color="#8F45ED"/>
<stop offset="1" stop-color="#3DDEED"/>
</linearGradient>
<linearGradient id="paint17_linear_179_231" x1="319.514" y1="300.483" x2="319.396" y2="270.54" gradientUnits="userSpaceOnUse">
<stop offset="0.00436282" stop-color="#8F45ED"/>
<stop offset="1" stop-color="#3DDEED"/>
</linearGradient>
<linearGradient id="paint18_linear_179_231" x1="167.321" y1="301.078" x2="167.203" y2="271.15" gradientUnits="userSpaceOnUse">
<stop offset="0.00436282" stop-color="#8F45ED"/>
<stop offset="1" stop-color="#3DDEED"/>
</linearGradient>
<linearGradient id="paint19_linear_179_231" x1="313.928" y1="217.212" x2="313.643" y2="144.213" gradientUnits="userSpaceOnUse">
<stop offset="0.00436282" stop-color="#8F45ED"/>
<stop offset="1" stop-color="#3DDEED"/>
</linearGradient>
<linearGradient id="paint20_linear_179_231" x1="156.432" y1="217.83" x2="156.147" y2="144.829" gradientUnits="userSpaceOnUse">
<stop offset="0.00436282" stop-color="#8F45ED"/>
<stop offset="1" stop-color="#3DDEED"/>
</linearGradient>
<linearGradient id="paint21_linear_179_231" x1="350.203" y1="182.836" x2="350.053" y2="144.395" gradientUnits="userSpaceOnUse">
<stop offset="0.00436282" stop-color="#8F45ED"/>
<stop offset="1" stop-color="#3DDEED"/>
</linearGradient>
<linearGradient id="paint22_linear_179_231" x1="229.234" y1="183.309" x2="229.083" y2="144.869" gradientUnits="userSpaceOnUse">
<stop offset="0.00436282" stop-color="#8F45ED"/>
<stop offset="1" stop-color="#3DDEED"/>
</linearGradient>
<linearGradient id="paint23_linear_179_231" x1="355.274" y1="181.827" x2="355.038" y2="121.607" gradientUnits="userSpaceOnUse">
<stop offset="0.00436282" stop-color="#8F45ED"/>
<stop offset="1" stop-color="#3DDEED"/>
</linearGradient>
<linearGradient id="paint24_linear_179_231" x1="239.284" y1="182.281" x2="239.048" y2="122.061" gradientUnits="userSpaceOnUse">
<stop offset="0.00436282" stop-color="#8F45ED"/>
<stop offset="1" stop-color="#3DDEED"/>
</linearGradient>
<linearGradient id="paint25_linear_179_231" x1="378.32" y1="195.463" x2="377.956" y2="102.334" gradientUnits="userSpaceOnUse">
<stop offset="0.00436282" stop-color="#8F45ED"/>
<stop offset="1" stop-color="#3DDEED"/>
</linearGradient>
<linearGradient id="paint26_linear_179_231" x1="287.311" y1="195.821" x2="286.947" y2="102.691" gradientUnits="userSpaceOnUse">
<stop offset="0.00436282" stop-color="#8F45ED"/>
<stop offset="1" stop-color="#3DDEED"/>
</linearGradient>
<linearGradient id="paint27_linear_179_231" x1="338.987" y1="299.171" x2="338.88" y2="271.705" gradientUnits="userSpaceOnUse">
<stop offset="0.00436282" stop-color="#8F45ED"/>
<stop offset="1" stop-color="#3DDEED"/>
</linearGradient>
<linearGradient id="paint28_linear_179_231" x1="206.096" y1="299.69" x2="205.988" y2="272.219" gradientUnits="userSpaceOnUse">
<stop offset="0.00436282" stop-color="#8F45ED"/>
<stop offset="1" stop-color="#3DDEED"/>
</linearGradient>
<linearGradient id="paint29_linear_179_231" x1="253.284" y1="272.606" x2="252.774" y2="142.3" gradientUnits="userSpaceOnUse">
<stop offset="0.00436282" stop-color="#8F45ED"/>
<stop offset="1" stop-color="#3DDEED"/>
</linearGradient>
<linearGradient id="paint30_linear_179_231" x1="34.8858" y1="273.437" x2="34.3758" y2="143.156" gradientUnits="userSpaceOnUse">
<stop offset="0.00436282" stop-color="#8F45ED"/>
<stop offset="1" stop-color="#3DDEED"/>
</linearGradient>
<linearGradient id="paint31_linear_179_231" x1="275.683" y1="292.09" x2="275.488" y2="242.133" gradientUnits="userSpaceOnUse">
<stop offset="0.00436282" stop-color="#8F45ED"/>
<stop offset="1" stop-color="#3DDEED"/>
</linearGradient>
<linearGradient id="paint32_linear_179_231" x1="79.5509" y1="292.858" x2="79.3551" y2="242.875" gradientUnits="userSpaceOnUse">
<stop offset="0.00436282" stop-color="#8F45ED"/>
<stop offset="1" stop-color="#3DDEED"/>
</linearGradient>
<linearGradient id="paint33_linear_179_231" x1="355.741" y1="304.364" x2="355.4" y2="217.426" gradientUnits="userSpaceOnUse">
<stop offset="0.00436282" stop-color="#8F45ED"/>
<stop offset="1" stop-color="#3DDEED"/>
</linearGradient>
<linearGradient id="paint34_linear_179_231" x1="239.608" y1="304.819" x2="239.267" y2="217.888" gradientUnits="userSpaceOnUse">
<stop offset="0.00436282" stop-color="#8F45ED"/>
<stop offset="1" stop-color="#3DDEED"/>
</linearGradient>
<linearGradient id="paint35_linear_179_231" x1="366.366" y1="310.187" x2="366.128" y2="249.34" gradientUnits="userSpaceOnUse">
<stop offset="0.00436282" stop-color="#8F45ED"/>
<stop offset="1" stop-color="#3DDEED"/>
</linearGradient>
<linearGradient id="paint36_linear_179_231" x1="260.822" y1="310.6" x2="260.584" y2="249.753" gradientUnits="userSpaceOnUse">
<stop offset="0.00436282" stop-color="#8F45ED"/>
<stop offset="1" stop-color="#3DDEED"/>
</linearGradient>
<linearGradient id="paint37_linear_179_231" x1="345.994" y1="306.583" x2="345.884" y2="278.331" gradientUnits="userSpaceOnUse">
<stop offset="0.00436282" stop-color="#8F45ED"/>
<stop offset="1" stop-color="#3DDEED"/>
</linearGradient>
<linearGradient id="paint38_linear_179_231" x1="220.312" y1="307.075" x2="220.201" y2="278.824" gradientUnits="userSpaceOnUse">
<stop offset="0.00436282" stop-color="#8F45ED"/>
<stop offset="1" stop-color="#3DDEED"/>
</linearGradient>
<linearGradient id="paint39_linear_179_231" x1="357.251" y1="197.994" x2="356.876" y2="102.324" gradientUnits="userSpaceOnUse">
<stop offset="0.00436282" stop-color="#8F45ED"/>
<stop offset="1" stop-color="#3DDEED"/>
</linearGradient>
<linearGradient id="paint40_linear_179_231" x1="247.125" y1="198.424" x2="246.751" y2="102.755" gradientUnits="userSpaceOnUse">
<stop offset="0.00436282" stop-color="#8F45ED"/>
<stop offset="1" stop-color="#3DDEED"/>
</linearGradient>
<linearGradient id="paint41_linear_179_231" x1="388.693" y1="186.714" x2="388.262" y2="76.703" gradientUnits="userSpaceOnUse">
<stop offset="0.00436282" stop-color="#8F45ED"/>
<stop offset="1" stop-color="#3DDEED"/>
</linearGradient>
<linearGradient id="paint42_linear_179_231" x1="306.064" y1="187.039" x2="305.633" y2="77.0276" gradientUnits="userSpaceOnUse">
<stop offset="0.00436282" stop-color="#8F45ED"/>
<stop offset="1" stop-color="#3DDEED"/>
</linearGradient>
<linearGradient id="paint43_linear_179_231" x1="237.117" y1="268.694" x2="236.712" y2="165.237" gradientUnits="userSpaceOnUse">
<stop offset="0.00436282" stop-color="#8F45ED"/>
<stop offset="1" stop-color="#3DDEED"/>
</linearGradient>
<linearGradient id="paint44_linear_179_231" x1="2.58914" y1="269.612" x2="2.18405" y2="166.156" gradientUnits="userSpaceOnUse">
<stop offset="0.00436282" stop-color="#8F45ED"/>
<stop offset="1" stop-color="#3DDEED"/>
</linearGradient>
<linearGradient id="paint45_linear_179_231" x1="286.711" y1="341.238" x2="286.101" y2="185.277" gradientUnits="userSpaceOnUse">
<stop offset="0.00436282" stop-color="#8F45ED"/>
<stop offset="1" stop-color="#3DDEED"/>
</linearGradient>
<linearGradient id="paint46_linear_179_231" x1="101.336" y1="341.962" x2="100.726" y2="186.031" gradientUnits="userSpaceOnUse">
<stop offset="0.00436282" stop-color="#8F45ED"/>
<stop offset="1" stop-color="#3DDEED"/>
</linearGradient>
<linearGradient id="paint47_linear_179_231" x1="306.843" y1="301.034" x2="306.484" y2="209.456" gradientUnits="userSpaceOnUse">
<stop offset="0.00436282" stop-color="#8F45ED"/>
<stop offset="1" stop-color="#3DDEED"/>
</linearGradient>
<linearGradient id="paint48_linear_179_231" x1="141.825" y1="301.703" x2="141.466" y2="210.084" gradientUnits="userSpaceOnUse">
<stop offset="0.00436282" stop-color="#8F45ED"/>
<stop offset="1" stop-color="#3DDEED"/>
</linearGradient>
<linearGradient id="paint49_linear_179_231" x1="292.111" y1="304.869" x2="291.873" y2="244.081" gradientUnits="userSpaceOnUse">
<stop offset="0.00436282" stop-color="#8F45ED"/>
<stop offset="1" stop-color="#3DDEED"/>
</linearGradient>
<linearGradient id="paint50_linear_179_231" x1="112.188" y1="305.569" x2="111.95" y2="244.785" gradientUnits="userSpaceOnUse">
<stop offset="0.00436282" stop-color="#8F45ED"/>
<stop offset="1" stop-color="#3DDEED"/>
</linearGradient>
<linearGradient id="paint51_linear_179_231" x1="285.897" y1="318.482" x2="285.547" y2="229.3" gradientUnits="userSpaceOnUse">
<stop offset="0.00436282" stop-color="#8F45ED"/>
<stop offset="1" stop-color="#3DDEED"/>
</linearGradient>
<linearGradient id="paint52_linear_179_231" x1="99.9541" y1="319.221" x2="99.6049" y2="230.002" gradientUnits="userSpaceOnUse">
<stop offset="0.00436282" stop-color="#8F45ED"/>
<stop offset="1" stop-color="#3DDEED"/>
</linearGradient>
<linearGradient id="paint53_linear_179_231" x1="377.384" y1="321.932" x2="377.182" y2="270.473" gradientUnits="userSpaceOnUse">
<stop offset="0.00436282" stop-color="#8F45ED"/>
<stop offset="1" stop-color="#3DDEED"/>
</linearGradient>
<linearGradient id="paint54_linear_179_231" x1="282.845" y1="322.303" x2="282.644" y2="270.843" gradientUnits="userSpaceOnUse">
<stop offset="0.00436282" stop-color="#8F45ED"/>
<stop offset="1" stop-color="#3DDEED"/>
</linearGradient>
<linearGradient id="paint55_linear_179_231" x1="386.945" y1="332.219" x2="386.668" y2="261.386" gradientUnits="userSpaceOnUse">
<stop offset="0.00436282" stop-color="#8F45ED"/>
<stop offset="1" stop-color="#3DDEED"/>
</linearGradient>
<linearGradient id="paint56_linear_179_231" x1="302.135" y1="332.551" x2="301.858" y2="261.719" gradientUnits="userSpaceOnUse">
<stop offset="0.00436282" stop-color="#8F45ED"/>
<stop offset="1" stop-color="#3DDEED"/>
</linearGradient>
<linearGradient id="paint57_linear_179_231" x1="376.207" y1="403.95" x2="375.586" y2="245.267" gradientUnits="userSpaceOnUse">
<stop offset="0.00436282" stop-color="#8F45ED"/>
<stop offset="1" stop-color="#3DDEED"/>
</linearGradient>
<linearGradient id="paint58_linear_179_231" x1="280.157" y1="404.326" x2="279.536" y2="245.642" gradientUnits="userSpaceOnUse">
<stop offset="0.00436282" stop-color="#8F45ED"/>
<stop offset="1" stop-color="#3DDEED"/>
</linearGradient>
<linearGradient id="paint59_linear_179_231" x1="409.695" y1="381.852" x2="408.996" y2="203.131" gradientUnits="userSpaceOnUse">
<stop offset="0.00436282" stop-color="#8F45ED"/>
<stop offset="1" stop-color="#3DDEED"/>
</linearGradient>
<linearGradient id="paint60_linear_179_231" x1="347.411" y1="382.096" x2="346.712" y2="203.376" gradientUnits="userSpaceOnUse">
<stop offset="0.00436282" stop-color="#8F45ED"/>
<stop offset="1" stop-color="#3DDEED"/>
</linearGradient>
<linearGradient id="paint61_linear_179_231" x1="330.19" y1="361.091" x2="329.549" y2="197.505" gradientUnits="userSpaceOnUse">
<stop offset="0.00436282" stop-color="#8F45ED"/>
<stop offset="1" stop-color="#3DDEED"/>
</linearGradient>
<linearGradient id="paint62_linear_179_231" x1="266.757" y1="361.342" x2="266.117" y2="197.751" gradientUnits="userSpaceOnUse">
<stop offset="0.00436282" stop-color="#8F45ED"/>
<stop offset="1" stop-color="#3DDEED"/>
</linearGradient>
<linearGradient id="paint63_linear_179_231" x1="187.823" y1="361.652" x2="187.183" y2="198.059" gradientUnits="userSpaceOnUse">
<stop offset="0.00436282" stop-color="#8F45ED"/>
<stop offset="1" stop-color="#3DDEED"/>
</linearGradient>
<linearGradient id="paint64_linear_179_231" x1="363.109" y1="341.027" x2="362.591" y2="208.564" gradientUnits="userSpaceOnUse">
<stop offset="0.00436282" stop-color="#8F45ED"/>
<stop offset="1" stop-color="#3DDEED"/>
</linearGradient>
<linearGradient id="paint65_linear_179_231" x1="254.275" y1="341.453" x2="253.757" y2="208.978" gradientUnits="userSpaceOnUse">
<stop offset="0.00436282" stop-color="#8F45ED"/>
<stop offset="1" stop-color="#3DDEED"/>
</linearGradient>
<linearGradient id="paint66_linear_179_231" x1="301.26" y1="415.718" x2="300.487" y2="218.239" gradientUnits="userSpaceOnUse">
<stop offset="0.00436282" stop-color="#8F45ED"/>
<stop offset="1" stop-color="#3DDEED"/>
</linearGradient>
<linearGradient id="paint67_linear_179_231" x1="470.311" y1="415.201" x2="469.538" y2="217.55" gradientUnits="userSpaceOnUse">
<stop offset="0.00436282" stop-color="#8F45ED"/>
<stop offset="1" stop-color="#3DDEED"/>
</linearGradient>
<linearGradient id="paint68_linear_179_231" x1="132.138" y1="416.523" x2="131.364" y2="218.876" gradientUnits="userSpaceOnUse">
<stop offset="0.00436282" stop-color="#8F45ED"/>
<stop offset="1" stop-color="#3DDEED"/>
</linearGradient>
<linearGradient id="paint69_linear_179_231" x1="239.802" y1="278.983" x2="239.474" y2="195.381" gradientUnits="userSpaceOnUse">
<stop offset="0.00436282" stop-color="#8F45ED"/>
<stop offset="1" stop-color="#3DDEED"/>
</linearGradient>
<linearGradient id="paint70_linear_179_231" x1="7.96013" y1="279.926" x2="7.63276" y2="196.289" gradientUnits="userSpaceOnUse">
<stop offset="0.00436282" stop-color="#8F45ED"/>
<stop offset="1" stop-color="#3DDEED"/>
</linearGradient>
<linearGradient id="paint71_linear_179_231" x1="371.619" y1="183.603" x2="370.904" y2="1.10932" gradientUnits="userSpaceOnUse">
<stop offset="0.00436282" stop-color="#8F45ED"/>
<stop offset="1" stop-color="#3DDEED"/>
</linearGradient>
<linearGradient id="paint72_linear_179_231" x1="271.867" y1="184" x2="271.152" y2="1.50265" gradientUnits="userSpaceOnUse">
<stop offset="0.00436282" stop-color="#8F45ED"/>
<stop offset="1" stop-color="#3DDEED"/>
</linearGradient>
<linearGradient id="paint73_linear_179_231" x1="447.285" y1="187.942" x2="446.584" y2="8.66233" gradientUnits="userSpaceOnUse">
<stop offset="0.00436282" stop-color="#8F45ED"/>
<stop offset="1" stop-color="#3DDEED"/>
</linearGradient>
<linearGradient id="paint74_linear_179_231" x1="427.708" y1="188.02" x2="427.006" y2="8.73999" gradientUnits="userSpaceOnUse">
<stop offset="0.00436282" stop-color="#8F45ED"/>
<stop offset="1" stop-color="#3DDEED"/>
</linearGradient>
<linearGradient id="paint75_linear_179_231" x1="423.044" y1="214.739" x2="422.347" y2="36.6869" gradientUnits="userSpaceOnUse">
<stop offset="0.00436282" stop-color="#8F45ED"/>
<stop offset="1" stop-color="#3DDEED"/>
</linearGradient>
<linearGradient id="paint76_linear_179_231" x1="387.242" y1="214.88" x2="386.545" y2="36.8258" gradientUnits="userSpaceOnUse">
<stop offset="0.00436282" stop-color="#8F45ED"/>
<stop offset="1" stop-color="#3DDEED"/>
</linearGradient>
<linearGradient id="paint77_linear_179_231" x1="471.421" y1="293.001" x2="470.656" y2="96.8514" gradientUnits="userSpaceOnUse">
<stop offset="0.00436282" stop-color="white"/>
<stop offset="1"/>
</linearGradient>
<linearGradient id="paint78_linear_179_231" x1="471.421" y1="293.001" x2="470.656" y2="96.8514" gradientUnits="userSpaceOnUse">
<stop offset="0.00436282" stop-color="#8F45ED"/>
<stop offset="1" stop-color="#3DDEED"/>
</linearGradient>
<linearGradient id="paint79_linear_179_231" x1="470.275" y1="171.781" x2="471.205" y2="409.96" gradientUnits="userSpaceOnUse">
<stop offset="0.00436282" stop-color="white"/>
<stop offset="1"/>
</linearGradient>
<linearGradient id="paint80_linear_179_231" x1="470.275" y1="171.78" x2="471.205" y2="409.959" gradientUnits="userSpaceOnUse">
<stop offset="0.00436282" stop-color="#8F45ED"/>
<stop offset="1" stop-color="#3DDEED"/>
</linearGradient>
<linearGradient id="paint81_linear_179_231" x1="391.358" y1="456.568" x2="390.642" y2="273.536" gradientUnits="userSpaceOnUse">
<stop offset="0.00436282" stop-color="#8F45ED"/>
<stop offset="1" stop-color="#3DDEED"/>
</linearGradient>
<linearGradient id="paint82_linear_179_231" x1="316.396" y1="456.862" x2="315.68" y2="273.83" gradientUnits="userSpaceOnUse">
<stop offset="0.00436282" stop-color="#8F45ED"/>
<stop offset="1" stop-color="#3DDEED"/>
</linearGradient>
</defs>
</svg>
